<mxfile host="app.diagrams.net" modified="2022-10-11T01:42:13.419Z" agent="5.0 (Windows NT 10.0; Win64; x64) AppleWebKit/537.36 (KHTML, like Gecko) Chrome/105.0.0.0 Safari/537.36" etag="wMX5XT-2zywyltLV05Y7" version="20.4.0" type="github">
  <diagram name="Page-1" id="9f46799a-70d6-7492-0946-bef42562c5a5">
    <mxGraphModel dx="3620" dy="706" grid="1" gridSize="10" guides="1" tooltips="1" connect="1" arrows="1" fold="1" page="1" pageScale="1" pageWidth="1100" pageHeight="850" background="none" math="0" shadow="0">
      <root>
        <mxCell id="0" />
        <mxCell id="1" parent="0" />
        <mxCell id="z39Naz20EpBCcd1Hh88v-29" value="" style="rounded=0;orthogonalLoop=1;jettySize=auto;html=1;" edge="1" parent="1" source="z39Naz20EpBCcd1Hh88v-5" target="z39Naz20EpBCcd1Hh88v-22">
          <mxGeometry relative="1" as="geometry" />
        </mxCell>
        <mxCell id="z39Naz20EpBCcd1Hh88v-49" value="派生" style="edgeLabel;html=1;align=center;verticalAlign=middle;resizable=0;points=[];" vertex="1" connectable="0" parent="z39Naz20EpBCcd1Hh88v-29">
          <mxGeometry x="-0.2258" y="-1" relative="1" as="geometry">
            <mxPoint as="offset" />
          </mxGeometry>
        </mxCell>
        <mxCell id="z39Naz20EpBCcd1Hh88v-43" value="" style="edgeStyle=none;rounded=0;orthogonalLoop=1;jettySize=auto;html=1;" edge="1" parent="1" source="z39Naz20EpBCcd1Hh88v-5" target="z39Naz20EpBCcd1Hh88v-34">
          <mxGeometry relative="1" as="geometry" />
        </mxCell>
        <mxCell id="z39Naz20EpBCcd1Hh88v-50" value="派生" style="edgeLabel;html=1;align=center;verticalAlign=middle;resizable=0;points=[];" vertex="1" connectable="0" parent="z39Naz20EpBCcd1Hh88v-43">
          <mxGeometry x="0.1606" y="1" relative="1" as="geometry">
            <mxPoint as="offset" />
          </mxGeometry>
        </mxCell>
        <mxCell id="z39Naz20EpBCcd1Hh88v-138" style="edgeStyle=none;rounded=0;orthogonalLoop=1;jettySize=auto;html=1;" edge="1" parent="1" source="z39Naz20EpBCcd1Hh88v-5" target="z39Naz20EpBCcd1Hh88v-94">
          <mxGeometry relative="1" as="geometry" />
        </mxCell>
        <mxCell id="z39Naz20EpBCcd1Hh88v-139" value="派生" style="edgeLabel;html=1;align=center;verticalAlign=middle;resizable=0;points=[];" vertex="1" connectable="0" parent="z39Naz20EpBCcd1Hh88v-138">
          <mxGeometry x="0.0958" y="4" relative="1" as="geometry">
            <mxPoint x="10" y="-10" as="offset" />
          </mxGeometry>
        </mxCell>
        <mxCell id="z39Naz20EpBCcd1Hh88v-150" value="" style="edgeStyle=none;rounded=0;orthogonalLoop=1;jettySize=auto;html=1;" edge="1" parent="1" source="z39Naz20EpBCcd1Hh88v-5" target="z39Naz20EpBCcd1Hh88v-141">
          <mxGeometry relative="1" as="geometry" />
        </mxCell>
        <mxCell id="z39Naz20EpBCcd1Hh88v-151" value="final派生" style="edgeLabel;html=1;align=center;verticalAlign=middle;resizable=0;points=[];" vertex="1" connectable="0" parent="z39Naz20EpBCcd1Hh88v-150">
          <mxGeometry x="-0.1221" relative="1" as="geometry">
            <mxPoint x="1" as="offset" />
          </mxGeometry>
        </mxCell>
        <mxCell id="z39Naz20EpBCcd1Hh88v-213" style="edgeStyle=none;rounded=0;orthogonalLoop=1;jettySize=auto;html=1;" edge="1" parent="1" source="z39Naz20EpBCcd1Hh88v-5" target="z39Naz20EpBCcd1Hh88v-199">
          <mxGeometry relative="1" as="geometry" />
        </mxCell>
        <mxCell id="z39Naz20EpBCcd1Hh88v-214" value="派生" style="edgeLabel;html=1;align=center;verticalAlign=middle;resizable=0;points=[];" vertex="1" connectable="0" parent="z39Naz20EpBCcd1Hh88v-213">
          <mxGeometry x="-0.1092" y="1" relative="1" as="geometry">
            <mxPoint x="-39" as="offset" />
          </mxGeometry>
        </mxCell>
        <mxCell id="z39Naz20EpBCcd1Hh88v-446" value="" style="edgeStyle=none;rounded=0;orthogonalLoop=1;jettySize=auto;html=1;" edge="1" parent="1" source="z39Naz20EpBCcd1Hh88v-5" target="z39Naz20EpBCcd1Hh88v-437">
          <mxGeometry relative="1" as="geometry" />
        </mxCell>
        <mxCell id="z39Naz20EpBCcd1Hh88v-496" style="edgeStyle=none;rounded=0;orthogonalLoop=1;jettySize=auto;html=1;" edge="1" parent="1" source="z39Naz20EpBCcd1Hh88v-5" target="z39Naz20EpBCcd1Hh88v-486">
          <mxGeometry relative="1" as="geometry" />
        </mxCell>
        <mxCell id="z39Naz20EpBCcd1Hh88v-497" value="派生" style="edgeLabel;html=1;align=center;verticalAlign=middle;resizable=0;points=[];" vertex="1" connectable="0" parent="z39Naz20EpBCcd1Hh88v-496">
          <mxGeometry x="-0.2673" y="3" relative="1" as="geometry">
            <mxPoint x="-490" y="144" as="offset" />
          </mxGeometry>
        </mxCell>
        <mxCell id="z39Naz20EpBCcd1Hh88v-5" value="UObject" style="swimlane;html=1;fontStyle=1;align=center;verticalAlign=top;childLayout=stackLayout;horizontal=1;startSize=26;horizontalStack=0;resizeParent=1;resizeLast=0;collapsible=1;marginBottom=0;swimlaneFillColor=#ffffff;rounded=0;shadow=0;comic=0;labelBackgroundColor=none;strokeWidth=1;fillColor=none;fontFamily=Verdana;fontSize=12" vertex="1" parent="1">
          <mxGeometry x="465" width="160" height="216" as="geometry">
            <mxRectangle x="440" y="73" width="90" height="30" as="alternateBounds" />
          </mxGeometry>
        </mxCell>
        <mxCell id="z39Naz20EpBCcd1Hh88v-20" value="GC" style="text;html=1;strokeColor=none;fillColor=none;align=left;verticalAlign=top;spacingLeft=4;spacingRight=4;whiteSpace=wrap;overflow=hidden;rotatable=0;points=[[0,0.5],[1,0.5]];portConstraint=eastwest;" vertex="1" parent="z39Naz20EpBCcd1Hh88v-5">
          <mxGeometry y="26" width="160" height="26" as="geometry" />
        </mxCell>
        <mxCell id="z39Naz20EpBCcd1Hh88v-30" value="MetaData" style="text;html=1;strokeColor=none;fillColor=none;align=left;verticalAlign=top;spacingLeft=4;spacingRight=4;whiteSpace=wrap;overflow=hidden;rotatable=0;points=[[0,0.5],[1,0.5]];portConstraint=eastwest;" vertex="1" parent="z39Naz20EpBCcd1Hh88v-5">
          <mxGeometry y="52" width="160" height="26" as="geometry" />
        </mxCell>
        <mxCell id="z39Naz20EpBCcd1Hh88v-6" value="Reflection" style="text;html=1;strokeColor=none;fillColor=none;align=left;verticalAlign=top;spacingLeft=4;spacingRight=4;whiteSpace=wrap;overflow=hidden;rotatable=0;points=[[0,0.5],[1,0.5]];portConstraint=eastwest;" vertex="1" parent="z39Naz20EpBCcd1Hh88v-5">
          <mxGeometry y="78" width="160" height="26" as="geometry" />
        </mxCell>
        <mxCell id="z39Naz20EpBCcd1Hh88v-32" value="Serialization" style="text;html=1;strokeColor=none;fillColor=none;align=left;verticalAlign=top;spacingLeft=4;spacingRight=4;whiteSpace=wrap;overflow=hidden;rotatable=0;points=[[0,0.5],[1,0.5]];portConstraint=eastwest;" vertex="1" parent="z39Naz20EpBCcd1Hh88v-5">
          <mxGeometry y="104" width="160" height="26" as="geometry" />
        </mxCell>
        <mxCell id="z39Naz20EpBCcd1Hh88v-31" value="Editable" style="text;html=1;strokeColor=none;fillColor=none;align=left;verticalAlign=top;spacingLeft=4;spacingRight=4;whiteSpace=wrap;overflow=hidden;rotatable=0;points=[[0,0.5],[1,0.5]];portConstraint=eastwest;" vertex="1" parent="z39Naz20EpBCcd1Hh88v-5">
          <mxGeometry y="130" width="160" height="26" as="geometry" />
        </mxCell>
        <mxCell id="z39Naz20EpBCcd1Hh88v-33" value="ClassDefaultObject" style="text;html=1;strokeColor=none;fillColor=none;align=left;verticalAlign=top;spacingLeft=4;spacingRight=4;whiteSpace=wrap;overflow=hidden;rotatable=0;points=[[0,0.5],[1,0.5]];portConstraint=eastwest;" vertex="1" parent="z39Naz20EpBCcd1Hh88v-5">
          <mxGeometry y="156" width="160" height="26" as="geometry" />
        </mxCell>
        <mxCell id="z39Naz20EpBCcd1Hh88v-11" value="" style="line;html=1;strokeWidth=1;fillColor=none;align=left;verticalAlign=middle;spacingTop=-1;spacingLeft=3;spacingRight=3;rotatable=0;labelPosition=right;points=[];portConstraint=eastwest;" vertex="1" parent="z39Naz20EpBCcd1Hh88v-5">
          <mxGeometry y="182" width="160" height="8" as="geometry" />
        </mxCell>
        <mxCell id="z39Naz20EpBCcd1Hh88v-12" value="+ method(type): type" style="text;html=1;strokeColor=none;fillColor=none;align=left;verticalAlign=top;spacingLeft=4;spacingRight=4;whiteSpace=wrap;overflow=hidden;rotatable=0;points=[[0,0.5],[1,0.5]];portConstraint=eastwest;" vertex="1" parent="z39Naz20EpBCcd1Hh88v-5">
          <mxGeometry y="190" width="160" height="26" as="geometry" />
        </mxCell>
        <mxCell id="z39Naz20EpBCcd1Hh88v-102" value="" style="edgeStyle=none;rounded=0;orthogonalLoop=1;jettySize=auto;html=1;" edge="1" parent="1" source="z39Naz20EpBCcd1Hh88v-22" target="z39Naz20EpBCcd1Hh88v-94">
          <mxGeometry relative="1" as="geometry" />
        </mxCell>
        <mxCell id="z39Naz20EpBCcd1Hh88v-107" value="组成" style="edgeLabel;html=1;align=center;verticalAlign=middle;resizable=0;points=[];" vertex="1" connectable="0" parent="z39Naz20EpBCcd1Hh88v-102">
          <mxGeometry x="-0.3215" y="-1" relative="1" as="geometry">
            <mxPoint x="-1" y="-1" as="offset" />
          </mxGeometry>
        </mxCell>
        <mxCell id="z39Naz20EpBCcd1Hh88v-117" value="" style="edgeStyle=none;rounded=0;orthogonalLoop=1;jettySize=auto;html=1;" edge="1" parent="1" source="z39Naz20EpBCcd1Hh88v-22" target="z39Naz20EpBCcd1Hh88v-109">
          <mxGeometry relative="1" as="geometry" />
        </mxCell>
        <mxCell id="z39Naz20EpBCcd1Hh88v-121" value="派生" style="edgeLabel;html=1;align=center;verticalAlign=middle;resizable=0;points=[];" vertex="1" connectable="0" parent="z39Naz20EpBCcd1Hh88v-117">
          <mxGeometry x="-0.3733" y="3" relative="1" as="geometry">
            <mxPoint x="-13" y="5" as="offset" />
          </mxGeometry>
        </mxCell>
        <mxCell id="z39Naz20EpBCcd1Hh88v-129" style="edgeStyle=none;rounded=0;orthogonalLoop=1;jettySize=auto;html=1;" edge="1" parent="1" source="z39Naz20EpBCcd1Hh88v-22" target="z39Naz20EpBCcd1Hh88v-122">
          <mxGeometry relative="1" as="geometry" />
        </mxCell>
        <mxCell id="z39Naz20EpBCcd1Hh88v-130" value="派生" style="edgeLabel;html=1;align=center;verticalAlign=middle;resizable=0;points=[];" vertex="1" connectable="0" parent="z39Naz20EpBCcd1Hh88v-129">
          <mxGeometry x="-0.5276" relative="1" as="geometry">
            <mxPoint x="-4" y="16" as="offset" />
          </mxGeometry>
        </mxCell>
        <mxCell id="z39Naz20EpBCcd1Hh88v-268" value="" style="edgeStyle=none;rounded=0;orthogonalLoop=1;jettySize=auto;html=1;" edge="1" parent="1" source="z39Naz20EpBCcd1Hh88v-22" target="z39Naz20EpBCcd1Hh88v-259">
          <mxGeometry relative="1" as="geometry" />
        </mxCell>
        <mxCell id="z39Naz20EpBCcd1Hh88v-269" value="派生" style="edgeLabel;html=1;align=center;verticalAlign=middle;resizable=0;points=[];" vertex="1" connectable="0" parent="z39Naz20EpBCcd1Hh88v-268">
          <mxGeometry x="0.1995" y="2" relative="1" as="geometry">
            <mxPoint y="-11" as="offset" />
          </mxGeometry>
        </mxCell>
        <mxCell id="z39Naz20EpBCcd1Hh88v-325" style="edgeStyle=none;rounded=0;orthogonalLoop=1;jettySize=auto;html=1;" edge="1" parent="1" source="z39Naz20EpBCcd1Hh88v-22" target="z39Naz20EpBCcd1Hh88v-307">
          <mxGeometry relative="1" as="geometry" />
        </mxCell>
        <mxCell id="z39Naz20EpBCcd1Hh88v-326" value="派生" style="edgeLabel;html=1;align=center;verticalAlign=middle;resizable=0;points=[];" vertex="1" connectable="0" parent="z39Naz20EpBCcd1Hh88v-325">
          <mxGeometry x="0.2737" y="3" relative="1" as="geometry">
            <mxPoint x="-6" y="-22" as="offset" />
          </mxGeometry>
        </mxCell>
        <mxCell id="z39Naz20EpBCcd1Hh88v-22" value="AActor" style="swimlane;html=1;fontStyle=1;align=center;verticalAlign=top;childLayout=stackLayout;horizontal=1;startSize=26;horizontalStack=0;resizeParent=1;resizeLast=0;collapsible=1;marginBottom=0;swimlaneFillColor=#ffffff;rounded=0;shadow=0;comic=0;labelBackgroundColor=none;strokeWidth=1;fillColor=none;fontFamily=Verdana;fontSize=12" vertex="1" parent="1">
          <mxGeometry x="777.5" y="416" width="285" height="310" as="geometry">
            <mxRectangle x="440" y="73" width="90" height="30" as="alternateBounds" />
          </mxGeometry>
        </mxCell>
        <mxCell id="z39Naz20EpBCcd1Hh88v-23" value="TArray&amp;lt;AActor*&amp;gt;Children" style="text;html=1;strokeColor=none;fillColor=none;align=left;verticalAlign=top;spacingLeft=4;spacingRight=4;whiteSpace=wrap;overflow=hidden;rotatable=0;points=[[0,0.5],[1,0.5]];portConstraint=eastwest;" vertex="1" parent="z39Naz20EpBCcd1Hh88v-22">
          <mxGeometry y="26" width="285" height="26" as="geometry" />
        </mxCell>
        <mxCell id="z39Naz20EpBCcd1Hh88v-44" value="AActor*Owner" style="text;html=1;strokeColor=none;fillColor=none;align=left;verticalAlign=top;spacingLeft=4;spacingRight=4;whiteSpace=wrap;overflow=hidden;rotatable=0;points=[[0,0.5],[1,0.5]];portConstraint=eastwest;" vertex="1" parent="z39Naz20EpBCcd1Hh88v-22">
          <mxGeometry y="52" width="285" height="26" as="geometry" />
        </mxCell>
        <mxCell id="z39Naz20EpBCcd1Hh88v-45" value="TSet&amp;lt;UActorComponent*&amp;gt;OwnedComponents保存这个Actor拥有的所有Component" style="text;html=1;strokeColor=none;fillColor=none;align=left;verticalAlign=top;spacingLeft=4;spacingRight=4;whiteSpace=wrap;overflow=hidden;rotatable=0;points=[[0,0.5],[1,0.5]];portConstraint=eastwest;" vertex="1" parent="z39Naz20EpBCcd1Hh88v-22">
          <mxGeometry y="78" width="285" height="42" as="geometry" />
        </mxCell>
        <mxCell id="z39Naz20EpBCcd1Hh88v-46" value="&lt;blockquote style=&quot;margin: 0 0 0 40px; border: none; padding: 0px;&quot;&gt;SceneComponent作为RootComponent&lt;/blockquote&gt;&lt;blockquote style=&quot;margin: 0 0 0 40px; border: none; padding: 0px;&quot;&gt;Actor若想被放进Level里，就必须实例化USceneComponent*RootComponent&lt;/blockquote&gt;" style="text;html=1;strokeColor=none;fillColor=none;align=left;verticalAlign=top;spacingLeft=4;spacingRight=4;whiteSpace=wrap;overflow=hidden;rotatable=0;points=[[0,0.5],[1,0.5]];portConstraint=eastwest;" vertex="1" parent="z39Naz20EpBCcd1Hh88v-22">
          <mxGeometry y="120" width="285" height="60" as="geometry" />
        </mxCell>
        <mxCell id="z39Naz20EpBCcd1Hh88v-28" value="TArray&amp;lt;UActorComponent*&amp;gt;InstanceComponents&lt;br&gt;保存着实例化的Components(预先的分类)" style="text;html=1;strokeColor=none;fillColor=none;align=left;verticalAlign=top;spacingLeft=4;spacingRight=4;whiteSpace=wrap;overflow=hidden;rotatable=0;points=[[0,0.5],[1,0.5]];portConstraint=eastwest;" vertex="1" parent="z39Naz20EpBCcd1Hh88v-22">
          <mxGeometry y="180" width="285" height="44" as="geometry" />
        </mxCell>
        <mxCell id="z39Naz20EpBCcd1Hh88v-258" value="TSet&amp;lt;UActorComponent*&amp;gt;ReplicatedComponents" style="text;html=1;strokeColor=none;fillColor=none;align=left;verticalAlign=top;spacingLeft=4;spacingRight=4;whiteSpace=wrap;overflow=hidden;rotatable=0;points=[[0,0.5],[1,0.5]];portConstraint=eastwest;" vertex="1" parent="z39Naz20EpBCcd1Hh88v-22">
          <mxGeometry y="224" width="285" height="26" as="geometry" />
        </mxCell>
        <mxCell id="z39Naz20EpBCcd1Hh88v-305" value="UInputComponent*InputComponent" style="text;html=1;strokeColor=none;fillColor=none;align=left;verticalAlign=top;spacingLeft=4;spacingRight=4;whiteSpace=wrap;overflow=hidden;rotatable=0;points=[[0,0.5],[1,0.5]];portConstraint=eastwest;" vertex="1" parent="z39Naz20EpBCcd1Hh88v-22">
          <mxGeometry y="250" width="285" height="26" as="geometry" />
        </mxCell>
        <mxCell id="z39Naz20EpBCcd1Hh88v-25" value="" style="line;html=1;strokeWidth=1;fillColor=none;align=left;verticalAlign=middle;spacingTop=-1;spacingLeft=3;spacingRight=3;rotatable=0;labelPosition=right;points=[];portConstraint=eastwest;" vertex="1" parent="z39Naz20EpBCcd1Hh88v-22">
          <mxGeometry y="276" width="285" height="8" as="geometry" />
        </mxCell>
        <mxCell id="z39Naz20EpBCcd1Hh88v-24" value="void Tick(float DeltaSeconds)" style="text;html=1;strokeColor=none;fillColor=none;align=left;verticalAlign=top;spacingLeft=4;spacingRight=4;whiteSpace=wrap;overflow=hidden;rotatable=0;points=[[0,0.5],[1,0.5]];portConstraint=eastwest;" vertex="1" parent="z39Naz20EpBCcd1Hh88v-22">
          <mxGeometry y="284" width="285" height="26" as="geometry" />
        </mxCell>
        <mxCell id="z39Naz20EpBCcd1Hh88v-56" value="" style="edgeStyle=none;rounded=0;orthogonalLoop=1;jettySize=auto;html=1;" edge="1" parent="1" source="z39Naz20EpBCcd1Hh88v-34" target="z39Naz20EpBCcd1Hh88v-51">
          <mxGeometry relative="1" as="geometry" />
        </mxCell>
        <mxCell id="z39Naz20EpBCcd1Hh88v-67" value="派生" style="edgeLabel;html=1;align=center;verticalAlign=middle;resizable=0;points=[];" vertex="1" connectable="0" parent="z39Naz20EpBCcd1Hh88v-56">
          <mxGeometry x="0.2112" y="-1" relative="1" as="geometry">
            <mxPoint as="offset" />
          </mxGeometry>
        </mxCell>
        <mxCell id="z39Naz20EpBCcd1Hh88v-254" style="edgeStyle=none;rounded=0;orthogonalLoop=1;jettySize=auto;html=1;" edge="1" parent="1" source="z39Naz20EpBCcd1Hh88v-34" target="z39Naz20EpBCcd1Hh88v-22">
          <mxGeometry relative="1" as="geometry" />
        </mxCell>
        <mxCell id="z39Naz20EpBCcd1Hh88v-255" value="组成" style="edgeLabel;html=1;align=center;verticalAlign=middle;resizable=0;points=[];" vertex="1" connectable="0" parent="z39Naz20EpBCcd1Hh88v-254">
          <mxGeometry x="-0.2139" y="-2" relative="1" as="geometry">
            <mxPoint as="offset" />
          </mxGeometry>
        </mxCell>
        <mxCell id="z39Naz20EpBCcd1Hh88v-34" value="UActorComponent" style="swimlane;html=1;fontStyle=1;align=center;verticalAlign=top;childLayout=stackLayout;horizontal=1;startSize=26;horizontalStack=0;resizeParent=1;resizeLast=0;collapsible=1;marginBottom=0;swimlaneFillColor=#ffffff;rounded=0;shadow=0;comic=0;labelBackgroundColor=none;strokeWidth=1;fillColor=none;fontFamily=Verdana;fontSize=12" vertex="1" parent="1">
          <mxGeometry x="820" y="190" width="220" height="130" as="geometry">
            <mxRectangle x="440" y="73" width="90" height="30" as="alternateBounds" />
          </mxGeometry>
        </mxCell>
        <mxCell id="z39Naz20EpBCcd1Hh88v-48" value="AActor*OwnerPrivate" style="text;html=1;strokeColor=none;fillColor=none;align=left;verticalAlign=top;spacingLeft=4;spacingRight=4;whiteSpace=wrap;overflow=hidden;rotatable=0;points=[[0,0.5],[1,0.5]];portConstraint=eastwest;" vertex="1" parent="z39Naz20EpBCcd1Hh88v-34">
          <mxGeometry y="26" width="220" height="26" as="geometry" />
        </mxCell>
        <mxCell id="z39Naz20EpBCcd1Hh88v-40" value="UWorld*WorldPrivate" style="text;html=1;strokeColor=none;fillColor=none;align=left;verticalAlign=top;spacingLeft=4;spacingRight=4;whiteSpace=wrap;overflow=hidden;rotatable=0;points=[[0,0.5],[1,0.5]];portConstraint=eastwest;" vertex="1" parent="z39Naz20EpBCcd1Hh88v-34">
          <mxGeometry y="52" width="220" height="26" as="geometry" />
        </mxCell>
        <mxCell id="z39Naz20EpBCcd1Hh88v-41" value="" style="line;html=1;strokeWidth=1;fillColor=none;align=left;verticalAlign=middle;spacingTop=-1;spacingLeft=3;spacingRight=3;rotatable=0;labelPosition=right;points=[];portConstraint=eastwest;" vertex="1" parent="z39Naz20EpBCcd1Hh88v-34">
          <mxGeometry y="78" width="220" height="8" as="geometry" />
        </mxCell>
        <mxCell id="z39Naz20EpBCcd1Hh88v-42" value="void PeceiveTick(float DelataSeconds)" style="text;html=1;strokeColor=none;fillColor=none;align=left;verticalAlign=top;spacingLeft=4;spacingRight=4;whiteSpace=wrap;overflow=hidden;rotatable=0;points=[[0,0.5],[1,0.5]];portConstraint=eastwest;" vertex="1" parent="z39Naz20EpBCcd1Hh88v-34">
          <mxGeometry y="86" width="220" height="26" as="geometry" />
        </mxCell>
        <mxCell id="z39Naz20EpBCcd1Hh88v-66" value="" style="edgeStyle=none;rounded=0;orthogonalLoop=1;jettySize=auto;html=1;" edge="1" parent="1" source="z39Naz20EpBCcd1Hh88v-51" target="z39Naz20EpBCcd1Hh88v-59">
          <mxGeometry relative="1" as="geometry" />
        </mxCell>
        <mxCell id="z39Naz20EpBCcd1Hh88v-68" value="派生" style="edgeLabel;html=1;align=center;verticalAlign=middle;resizable=0;points=[];" vertex="1" connectable="0" parent="z39Naz20EpBCcd1Hh88v-66">
          <mxGeometry x="0.2546" y="1" relative="1" as="geometry">
            <mxPoint x="-8" y="-1" as="offset" />
          </mxGeometry>
        </mxCell>
        <mxCell id="z39Naz20EpBCcd1Hh88v-76" value="" style="edgeStyle=none;rounded=0;orthogonalLoop=1;jettySize=auto;html=1;" edge="1" parent="1" source="z39Naz20EpBCcd1Hh88v-51" target="z39Naz20EpBCcd1Hh88v-69">
          <mxGeometry relative="1" as="geometry" />
        </mxCell>
        <mxCell id="z39Naz20EpBCcd1Hh88v-83" value="派生" style="edgeLabel;html=1;align=center;verticalAlign=middle;resizable=0;points=[];" vertex="1" connectable="0" parent="z39Naz20EpBCcd1Hh88v-76">
          <mxGeometry x="0.2694" y="3" relative="1" as="geometry">
            <mxPoint x="-6" y="-9" as="offset" />
          </mxGeometry>
        </mxCell>
        <mxCell id="z39Naz20EpBCcd1Hh88v-256" style="edgeStyle=none;rounded=0;orthogonalLoop=1;jettySize=auto;html=1;" edge="1" parent="1" source="z39Naz20EpBCcd1Hh88v-51" target="z39Naz20EpBCcd1Hh88v-22">
          <mxGeometry relative="1" as="geometry" />
        </mxCell>
        <mxCell id="z39Naz20EpBCcd1Hh88v-257" value="组成" style="edgeLabel;html=1;align=center;verticalAlign=middle;resizable=0;points=[];" vertex="1" connectable="0" parent="z39Naz20EpBCcd1Hh88v-256">
          <mxGeometry x="-0.2838" y="-3" relative="1" as="geometry">
            <mxPoint x="-22" y="6" as="offset" />
          </mxGeometry>
        </mxCell>
        <mxCell id="z39Naz20EpBCcd1Hh88v-51" value="USceneComponent" style="swimlane;html=1;fontStyle=1;align=center;verticalAlign=top;childLayout=stackLayout;horizontal=1;startSize=26;horizontalStack=0;resizeParent=1;resizeLast=0;collapsible=1;marginBottom=0;swimlaneFillColor=#ffffff;rounded=0;shadow=0;comic=0;labelBackgroundColor=none;strokeWidth=1;fillColor=none;fontFamily=Verdana;fontSize=12" vertex="1" parent="1">
          <mxGeometry x="1090" y="332" width="250" height="198" as="geometry">
            <mxRectangle x="440" y="73" width="90" height="30" as="alternateBounds" />
          </mxGeometry>
        </mxCell>
        <mxCell id="z39Naz20EpBCcd1Hh88v-52" value="USceneComponent*AttachParent&lt;br&gt;TArray&amp;lt;USceneComponent*&amp;gt;AttachChildren&lt;br&gt;提供相互嵌套" style="text;html=1;strokeColor=none;fillColor=none;align=left;verticalAlign=top;spacingLeft=4;spacingRight=4;whiteSpace=wrap;overflow=hidden;rotatable=0;points=[[0,0.5],[1,0.5]];portConstraint=eastwest;" vertex="1" parent="z39Naz20EpBCcd1Hh88v-51">
          <mxGeometry y="26" width="250" height="54" as="geometry" />
        </mxCell>
        <mxCell id="z39Naz20EpBCcd1Hh88v-58" value="FTransform ComponentToWorld&lt;br&gt;提供了Transform能力" style="text;html=1;strokeColor=none;fillColor=none;align=left;verticalAlign=top;spacingLeft=4;spacingRight=4;whiteSpace=wrap;overflow=hidden;rotatable=0;points=[[0,0.5],[1,0.5]];portConstraint=eastwest;" vertex="1" parent="z39Naz20EpBCcd1Hh88v-51">
          <mxGeometry y="80" width="250" height="42" as="geometry" />
        </mxCell>
        <mxCell id="z39Naz20EpBCcd1Hh88v-53" value="FBoxSphereBounds Bounds" style="text;html=1;strokeColor=none;fillColor=none;align=left;verticalAlign=top;spacingLeft=4;spacingRight=4;whiteSpace=wrap;overflow=hidden;rotatable=0;points=[[0,0.5],[1,0.5]];portConstraint=eastwest;" vertex="1" parent="z39Naz20EpBCcd1Hh88v-51">
          <mxGeometry y="122" width="250" height="26" as="geometry" />
        </mxCell>
        <mxCell id="z39Naz20EpBCcd1Hh88v-54" value="" style="line;html=1;strokeWidth=1;fillColor=none;align=left;verticalAlign=middle;spacingTop=-1;spacingLeft=3;spacingRight=3;rotatable=0;labelPosition=right;points=[];portConstraint=eastwest;" vertex="1" parent="z39Naz20EpBCcd1Hh88v-51">
          <mxGeometry y="148" width="250" height="8" as="geometry" />
        </mxCell>
        <mxCell id="z39Naz20EpBCcd1Hh88v-55" value="func" style="text;html=1;strokeColor=none;fillColor=none;align=left;verticalAlign=top;spacingLeft=4;spacingRight=4;whiteSpace=wrap;overflow=hidden;rotatable=0;points=[[0,0.5],[1,0.5]];portConstraint=eastwest;" vertex="1" parent="z39Naz20EpBCcd1Hh88v-51">
          <mxGeometry y="156" width="250" height="26" as="geometry" />
        </mxCell>
        <mxCell id="z39Naz20EpBCcd1Hh88v-82" value="" style="edgeStyle=none;rounded=0;orthogonalLoop=1;jettySize=auto;html=1;" edge="1" parent="1" source="z39Naz20EpBCcd1Hh88v-59" target="z39Naz20EpBCcd1Hh88v-77">
          <mxGeometry relative="1" as="geometry" />
        </mxCell>
        <mxCell id="z39Naz20EpBCcd1Hh88v-84" value="派生" style="edgeLabel;html=1;align=center;verticalAlign=middle;resizable=0;points=[];" vertex="1" connectable="0" parent="z39Naz20EpBCcd1Hh88v-82">
          <mxGeometry x="0.3082" relative="1" as="geometry">
            <mxPoint y="-12" as="offset" />
          </mxGeometry>
        </mxCell>
        <mxCell id="z39Naz20EpBCcd1Hh88v-59" value="UPrimitiveComponent" style="swimlane;html=1;fontStyle=1;align=center;verticalAlign=top;childLayout=stackLayout;horizontal=1;startSize=26;horizontalStack=0;resizeParent=1;resizeLast=0;collapsible=1;marginBottom=0;swimlaneFillColor=#ffffff;rounded=0;shadow=0;comic=0;labelBackgroundColor=none;strokeWidth=1;fillColor=none;fontFamily=Verdana;fontSize=12" vertex="1" parent="1">
          <mxGeometry x="1550" y="540" width="220" height="150" as="geometry">
            <mxRectangle x="440" y="73" width="90" height="30" as="alternateBounds" />
          </mxGeometry>
        </mxCell>
        <mxCell id="z39Naz20EpBCcd1Hh88v-60" value="FLightingChannels LightingChannels" style="text;html=1;strokeColor=none;fillColor=none;align=left;verticalAlign=top;spacingLeft=4;spacingRight=4;whiteSpace=wrap;overflow=hidden;rotatable=0;points=[[0,0.5],[1,0.5]];portConstraint=eastwest;" vertex="1" parent="z39Naz20EpBCcd1Hh88v-59">
          <mxGeometry y="26" width="220" height="26" as="geometry" />
        </mxCell>
        <mxCell id="z39Naz20EpBCcd1Hh88v-61" value="FBodyInstance BodyInstance" style="text;html=1;strokeColor=none;fillColor=none;align=left;verticalAlign=top;spacingLeft=4;spacingRight=4;whiteSpace=wrap;overflow=hidden;rotatable=0;points=[[0,0.5],[1,0.5]];portConstraint=eastwest;" vertex="1" parent="z39Naz20EpBCcd1Hh88v-59">
          <mxGeometry y="52" width="220" height="26" as="geometry" />
        </mxCell>
        <mxCell id="z39Naz20EpBCcd1Hh88v-64" value="" style="line;html=1;strokeWidth=1;fillColor=none;align=left;verticalAlign=middle;spacingTop=-1;spacingLeft=3;spacingRight=3;rotatable=0;labelPosition=right;points=[];portConstraint=eastwest;" vertex="1" parent="z39Naz20EpBCcd1Hh88v-59">
          <mxGeometry y="78" width="220" height="8" as="geometry" />
        </mxCell>
        <mxCell id="z39Naz20EpBCcd1Hh88v-65" value="func" style="text;html=1;strokeColor=none;fillColor=none;align=left;verticalAlign=top;spacingLeft=4;spacingRight=4;whiteSpace=wrap;overflow=hidden;rotatable=0;points=[[0,0.5],[1,0.5]];portConstraint=eastwest;" vertex="1" parent="z39Naz20EpBCcd1Hh88v-59">
          <mxGeometry y="86" width="220" height="26" as="geometry" />
        </mxCell>
        <mxCell id="z39Naz20EpBCcd1Hh88v-104" style="edgeStyle=none;rounded=0;orthogonalLoop=1;jettySize=auto;html=1;" edge="1" parent="1" source="z39Naz20EpBCcd1Hh88v-69" target="z39Naz20EpBCcd1Hh88v-22">
          <mxGeometry relative="1" as="geometry" />
        </mxCell>
        <mxCell id="z39Naz20EpBCcd1Hh88v-105" value="组成" style="edgeLabel;html=1;align=center;verticalAlign=middle;resizable=0;points=[];" vertex="1" connectable="0" parent="z39Naz20EpBCcd1Hh88v-104">
          <mxGeometry x="-0.582" y="3" relative="1" as="geometry">
            <mxPoint as="offset" />
          </mxGeometry>
        </mxCell>
        <mxCell id="z39Naz20EpBCcd1Hh88v-69" value="UChildActorComponent" style="swimlane;html=1;fontStyle=1;align=center;verticalAlign=top;childLayout=stackLayout;horizontal=1;startSize=26;horizontalStack=0;resizeParent=1;resizeLast=0;collapsible=1;marginBottom=0;swimlaneFillColor=#ffffff;rounded=0;shadow=0;comic=0;labelBackgroundColor=none;strokeWidth=1;fillColor=none;fontFamily=Verdana;fontSize=12" vertex="1" parent="1">
          <mxGeometry x="1230" y="650" width="230" height="160" as="geometry">
            <mxRectangle x="440" y="73" width="90" height="30" as="alternateBounds" />
          </mxGeometry>
        </mxCell>
        <mxCell id="z39Naz20EpBCcd1Hh88v-70" value="TSubclassOf&amp;lt;AActor&amp;gt;ChildActorClass" style="text;html=1;strokeColor=none;fillColor=none;align=left;verticalAlign=top;spacingLeft=4;spacingRight=4;whiteSpace=wrap;overflow=hidden;rotatable=0;points=[[0,0.5],[1,0.5]];portConstraint=eastwest;" vertex="1" parent="z39Naz20EpBCcd1Hh88v-69">
          <mxGeometry y="26" width="230" height="26" as="geometry" />
        </mxCell>
        <mxCell id="z39Naz20EpBCcd1Hh88v-73" value="AActor* ChildActor" style="text;html=1;strokeColor=none;fillColor=none;align=left;verticalAlign=top;spacingLeft=4;spacingRight=4;whiteSpace=wrap;overflow=hidden;rotatable=0;points=[[0,0.5],[1,0.5]];portConstraint=eastwest;" vertex="1" parent="z39Naz20EpBCcd1Hh88v-69">
          <mxGeometry y="52" width="230" height="26" as="geometry" />
        </mxCell>
        <mxCell id="z39Naz20EpBCcd1Hh88v-74" value="" style="line;html=1;strokeWidth=1;fillColor=none;align=left;verticalAlign=middle;spacingTop=-1;spacingLeft=3;spacingRight=3;rotatable=0;labelPosition=right;points=[];portConstraint=eastwest;" vertex="1" parent="z39Naz20EpBCcd1Hh88v-69">
          <mxGeometry y="78" width="230" height="8" as="geometry" />
        </mxCell>
        <mxCell id="z39Naz20EpBCcd1Hh88v-75" value="func" style="text;html=1;strokeColor=none;fillColor=none;align=left;verticalAlign=top;spacingLeft=4;spacingRight=4;whiteSpace=wrap;overflow=hidden;rotatable=0;points=[[0,0.5],[1,0.5]];portConstraint=eastwest;" vertex="1" parent="z39Naz20EpBCcd1Hh88v-69">
          <mxGeometry y="86" width="230" height="26" as="geometry" />
        </mxCell>
        <mxCell id="z39Naz20EpBCcd1Hh88v-89" value="" style="edgeStyle=none;rounded=0;orthogonalLoop=1;jettySize=auto;html=1;" edge="1" parent="1" source="z39Naz20EpBCcd1Hh88v-77" target="z39Naz20EpBCcd1Hh88v-85">
          <mxGeometry relative="1" as="geometry" />
        </mxCell>
        <mxCell id="z39Naz20EpBCcd1Hh88v-91" value="派生" style="edgeLabel;html=1;align=center;verticalAlign=middle;resizable=0;points=[];" vertex="1" connectable="0" parent="z39Naz20EpBCcd1Hh88v-89">
          <mxGeometry x="0.336" y="-1" relative="1" as="geometry">
            <mxPoint x="-4" y="-14" as="offset" />
          </mxGeometry>
        </mxCell>
        <mxCell id="z39Naz20EpBCcd1Hh88v-77" value="UMeshComponent" style="swimlane;html=1;fontStyle=1;align=center;verticalAlign=top;childLayout=stackLayout;horizontal=1;startSize=26;horizontalStack=0;resizeParent=1;resizeLast=0;collapsible=1;marginBottom=0;swimlaneFillColor=#ffffff;rounded=0;shadow=0;comic=0;labelBackgroundColor=none;strokeWidth=1;fillColor=none;fontFamily=Verdana;fontSize=12" vertex="1" parent="1">
          <mxGeometry x="1590" y="760" width="220" height="110" as="geometry">
            <mxRectangle x="440" y="73" width="90" height="30" as="alternateBounds" />
          </mxGeometry>
        </mxCell>
        <mxCell id="z39Naz20EpBCcd1Hh88v-78" value="TArray&amp;lt;class UMaterialInterface*&amp;gt;" style="text;html=1;strokeColor=none;fillColor=none;align=left;verticalAlign=top;spacingLeft=4;spacingRight=4;whiteSpace=wrap;overflow=hidden;rotatable=0;points=[[0,0.5],[1,0.5]];portConstraint=eastwest;" vertex="1" parent="z39Naz20EpBCcd1Hh88v-77">
          <mxGeometry y="26" width="220" height="26" as="geometry" />
        </mxCell>
        <mxCell id="z39Naz20EpBCcd1Hh88v-80" value="" style="line;html=1;strokeWidth=1;fillColor=none;align=left;verticalAlign=middle;spacingTop=-1;spacingLeft=3;spacingRight=3;rotatable=0;labelPosition=right;points=[];portConstraint=eastwest;" vertex="1" parent="z39Naz20EpBCcd1Hh88v-77">
          <mxGeometry y="52" width="220" height="8" as="geometry" />
        </mxCell>
        <mxCell id="z39Naz20EpBCcd1Hh88v-81" value="func" style="text;html=1;strokeColor=none;fillColor=none;align=left;verticalAlign=top;spacingLeft=4;spacingRight=4;whiteSpace=wrap;overflow=hidden;rotatable=0;points=[[0,0.5],[1,0.5]];portConstraint=eastwest;" vertex="1" parent="z39Naz20EpBCcd1Hh88v-77">
          <mxGeometry y="60" width="220" height="26" as="geometry" />
        </mxCell>
        <mxCell id="z39Naz20EpBCcd1Hh88v-85" value="UStaticMeshComponent" style="swimlane;html=1;fontStyle=1;align=center;verticalAlign=top;childLayout=stackLayout;horizontal=1;startSize=26;horizontalStack=0;resizeParent=1;resizeLast=0;collapsible=1;marginBottom=0;swimlaneFillColor=#ffffff;rounded=0;shadow=0;comic=0;labelBackgroundColor=none;strokeWidth=1;fillColor=none;fontFamily=Verdana;fontSize=12" vertex="1" parent="1">
          <mxGeometry x="1570" y="960" width="320" height="112" as="geometry">
            <mxRectangle x="440" y="73" width="90" height="30" as="alternateBounds" />
          </mxGeometry>
        </mxCell>
        <mxCell id="z39Naz20EpBCcd1Hh88v-90" value="UStaticMesh*StaticMesh" style="text;html=1;strokeColor=none;fillColor=none;align=left;verticalAlign=top;spacingLeft=4;spacingRight=4;whiteSpace=wrap;overflow=hidden;rotatable=0;points=[[0,0.5],[1,0.5]];portConstraint=eastwest;" vertex="1" parent="z39Naz20EpBCcd1Hh88v-85">
          <mxGeometry y="26" width="320" height="26" as="geometry" />
        </mxCell>
        <mxCell id="z39Naz20EpBCcd1Hh88v-86" value="TArray&amp;lt;struct FStaticMeshComponentLODInfo&amp;gt;LODData" style="text;html=1;strokeColor=none;fillColor=none;align=left;verticalAlign=top;spacingLeft=4;spacingRight=4;whiteSpace=wrap;overflow=hidden;rotatable=0;points=[[0,0.5],[1,0.5]];portConstraint=eastwest;" vertex="1" parent="z39Naz20EpBCcd1Hh88v-85">
          <mxGeometry y="52" width="320" height="26" as="geometry" />
        </mxCell>
        <mxCell id="z39Naz20EpBCcd1Hh88v-87" value="" style="line;html=1;strokeWidth=1;fillColor=none;align=left;verticalAlign=middle;spacingTop=-1;spacingLeft=3;spacingRight=3;rotatable=0;labelPosition=right;points=[];portConstraint=eastwest;" vertex="1" parent="z39Naz20EpBCcd1Hh88v-85">
          <mxGeometry y="78" width="320" height="8" as="geometry" />
        </mxCell>
        <mxCell id="z39Naz20EpBCcd1Hh88v-88" value="func" style="text;html=1;strokeColor=none;fillColor=none;align=left;verticalAlign=top;spacingLeft=4;spacingRight=4;whiteSpace=wrap;overflow=hidden;rotatable=0;points=[[0,0.5],[1,0.5]];portConstraint=eastwest;" vertex="1" parent="z39Naz20EpBCcd1Hh88v-85">
          <mxGeometry y="86" width="320" height="26" as="geometry" />
        </mxCell>
        <mxCell id="z39Naz20EpBCcd1Hh88v-152" style="edgeStyle=none;rounded=0;orthogonalLoop=1;jettySize=auto;html=1;" edge="1" parent="1" source="z39Naz20EpBCcd1Hh88v-94" target="z39Naz20EpBCcd1Hh88v-141">
          <mxGeometry relative="1" as="geometry" />
        </mxCell>
        <mxCell id="z39Naz20EpBCcd1Hh88v-153" value="组成" style="edgeLabel;html=1;align=center;verticalAlign=middle;resizable=0;points=[];" vertex="1" connectable="0" parent="z39Naz20EpBCcd1Hh88v-152">
          <mxGeometry x="-0.3251" y="-3" relative="1" as="geometry">
            <mxPoint x="-13" y="5" as="offset" />
          </mxGeometry>
        </mxCell>
        <mxCell id="z39Naz20EpBCcd1Hh88v-94" value="ULevel" style="swimlane;html=1;fontStyle=1;align=center;verticalAlign=top;childLayout=stackLayout;horizontal=1;startSize=26;horizontalStack=0;resizeParent=1;resizeLast=0;collapsible=1;marginBottom=0;swimlaneFillColor=#ffffff;rounded=0;shadow=0;comic=0;labelBackgroundColor=none;strokeWidth=1;fillColor=none;fontFamily=Verdana;fontSize=12" vertex="1" parent="1">
          <mxGeometry x="420" y="385" width="280" height="190" as="geometry">
            <mxRectangle x="440" y="73" width="90" height="30" as="alternateBounds" />
          </mxGeometry>
        </mxCell>
        <mxCell id="z39Naz20EpBCcd1Hh88v-95" value="TArray&amp;lt;AActor*&amp;gt;Actors" style="text;html=1;strokeColor=none;fillColor=none;align=left;verticalAlign=top;spacingLeft=4;spacingRight=4;whiteSpace=wrap;overflow=hidden;rotatable=0;points=[[0,0.5],[1,0.5]];portConstraint=eastwest;" vertex="1" parent="z39Naz20EpBCcd1Hh88v-94">
          <mxGeometry y="26" width="280" height="26" as="geometry" />
        </mxCell>
        <mxCell id="z39Naz20EpBCcd1Hh88v-97" value="&lt;span style=&quot;white-space: pre;&quot;&gt;	&lt;/span&gt;AWorldSetting*WorldSettings;(Actors[0])" style="text;html=1;strokeColor=none;fillColor=none;align=left;verticalAlign=top;spacingLeft=4;spacingRight=4;whiteSpace=wrap;overflow=hidden;rotatable=0;points=[[0,0.5],[1,0.5]];portConstraint=eastwest;" vertex="1" parent="z39Naz20EpBCcd1Hh88v-94">
          <mxGeometry y="52" width="280" height="30" as="geometry" />
        </mxCell>
        <mxCell id="z39Naz20EpBCcd1Hh88v-96" value="ALevelScripActor*LevelScriptActor关卡蓝图" style="text;html=1;strokeColor=none;fillColor=none;align=left;verticalAlign=top;spacingLeft=4;spacingRight=4;whiteSpace=wrap;overflow=hidden;rotatable=0;points=[[0,0.5],[1,0.5]];portConstraint=eastwest;" vertex="1" parent="z39Naz20EpBCcd1Hh88v-94">
          <mxGeometry y="82" width="280" height="28" as="geometry" />
        </mxCell>
        <mxCell id="z39Naz20EpBCcd1Hh88v-103" value="TArrary&amp;lt;UModelComponent*&amp;gt;ModelComponents" style="text;html=1;strokeColor=none;fillColor=none;align=left;verticalAlign=top;spacingLeft=4;spacingRight=4;whiteSpace=wrap;overflow=hidden;rotatable=0;points=[[0,0.5],[1,0.5]];portConstraint=eastwest;" vertex="1" parent="z39Naz20EpBCcd1Hh88v-94">
          <mxGeometry y="110" width="280" height="30" as="geometry" />
        </mxCell>
        <mxCell id="z39Naz20EpBCcd1Hh88v-100" value="" style="line;html=1;strokeWidth=1;fillColor=none;align=left;verticalAlign=middle;spacingTop=-1;spacingLeft=3;spacingRight=3;rotatable=0;labelPosition=right;points=[];portConstraint=eastwest;" vertex="1" parent="z39Naz20EpBCcd1Hh88v-94">
          <mxGeometry y="140" width="280" height="8" as="geometry" />
        </mxCell>
        <mxCell id="z39Naz20EpBCcd1Hh88v-101" value="func" style="text;html=1;strokeColor=none;fillColor=none;align=left;verticalAlign=top;spacingLeft=4;spacingRight=4;whiteSpace=wrap;overflow=hidden;rotatable=0;points=[[0,0.5],[1,0.5]];portConstraint=eastwest;" vertex="1" parent="z39Naz20EpBCcd1Hh88v-94">
          <mxGeometry y="148" width="280" height="26" as="geometry" />
        </mxCell>
        <mxCell id="z39Naz20EpBCcd1Hh88v-119" style="edgeStyle=none;rounded=0;orthogonalLoop=1;jettySize=auto;html=1;" edge="1" parent="1" source="z39Naz20EpBCcd1Hh88v-109" target="z39Naz20EpBCcd1Hh88v-94">
          <mxGeometry relative="1" as="geometry" />
        </mxCell>
        <mxCell id="z39Naz20EpBCcd1Hh88v-120" value="组成" style="edgeLabel;html=1;align=center;verticalAlign=middle;resizable=0;points=[];" vertex="1" connectable="0" parent="z39Naz20EpBCcd1Hh88v-119">
          <mxGeometry x="-0.2275" y="-2" relative="1" as="geometry">
            <mxPoint as="offset" />
          </mxGeometry>
        </mxCell>
        <mxCell id="z39Naz20EpBCcd1Hh88v-109" value="ALevelScriptActor" style="swimlane;html=1;fontStyle=1;align=center;verticalAlign=top;childLayout=stackLayout;horizontal=1;startSize=26;horizontalStack=0;resizeParent=1;resizeLast=0;collapsible=1;marginBottom=0;swimlaneFillColor=#ffffff;rounded=0;shadow=0;comic=0;labelBackgroundColor=none;strokeWidth=1;fillColor=none;fontFamily=Verdana;fontSize=12" vertex="1" parent="1">
          <mxGeometry x="407.5" y="646" width="170" height="100" as="geometry">
            <mxRectangle x="440" y="73" width="90" height="30" as="alternateBounds" />
          </mxGeometry>
        </mxCell>
        <mxCell id="z39Naz20EpBCcd1Hh88v-110" value="uint32 bInputEnabled=1" style="text;html=1;strokeColor=none;fillColor=none;align=left;verticalAlign=top;spacingLeft=4;spacingRight=4;whiteSpace=wrap;overflow=hidden;rotatable=0;points=[[0,0.5],[1,0.5]];portConstraint=eastwest;" vertex="1" parent="z39Naz20EpBCcd1Hh88v-109">
          <mxGeometry y="26" width="170" height="26" as="geometry" />
        </mxCell>
        <mxCell id="z39Naz20EpBCcd1Hh88v-115" value="" style="line;html=1;strokeWidth=1;fillColor=none;align=left;verticalAlign=middle;spacingTop=-1;spacingLeft=3;spacingRight=3;rotatable=0;labelPosition=right;points=[];portConstraint=eastwest;" vertex="1" parent="z39Naz20EpBCcd1Hh88v-109">
          <mxGeometry y="52" width="170" height="8" as="geometry" />
        </mxCell>
        <mxCell id="z39Naz20EpBCcd1Hh88v-116" value="func" style="text;html=1;strokeColor=none;fillColor=none;align=left;verticalAlign=top;spacingLeft=4;spacingRight=4;whiteSpace=wrap;overflow=hidden;rotatable=0;points=[[0,0.5],[1,0.5]];portConstraint=eastwest;" vertex="1" parent="z39Naz20EpBCcd1Hh88v-109">
          <mxGeometry y="60" width="170" height="26" as="geometry" />
        </mxCell>
        <mxCell id="z39Naz20EpBCcd1Hh88v-135" value="" style="edgeStyle=none;rounded=0;orthogonalLoop=1;jettySize=auto;html=1;" edge="1" parent="1" source="z39Naz20EpBCcd1Hh88v-122" target="z39Naz20EpBCcd1Hh88v-131">
          <mxGeometry relative="1" as="geometry" />
        </mxCell>
        <mxCell id="z39Naz20EpBCcd1Hh88v-284" value="派生" style="edgeLabel;html=1;align=center;verticalAlign=middle;resizable=0;points=[];" vertex="1" connectable="0" parent="z39Naz20EpBCcd1Hh88v-135">
          <mxGeometry x="-0.3666" y="1" relative="1" as="geometry">
            <mxPoint x="8" as="offset" />
          </mxGeometry>
        </mxCell>
        <mxCell id="z39Naz20EpBCcd1Hh88v-336" value="" style="edgeStyle=none;rounded=0;orthogonalLoop=1;jettySize=auto;html=1;" edge="1" parent="1" source="z39Naz20EpBCcd1Hh88v-122" target="z39Naz20EpBCcd1Hh88v-332">
          <mxGeometry relative="1" as="geometry" />
        </mxCell>
        <mxCell id="z39Naz20EpBCcd1Hh88v-337" value="派生" style="edgeLabel;html=1;align=center;verticalAlign=middle;resizable=0;points=[];" vertex="1" connectable="0" parent="z39Naz20EpBCcd1Hh88v-336">
          <mxGeometry x="-0.0901" y="-1" relative="1" as="geometry">
            <mxPoint x="2" y="3" as="offset" />
          </mxGeometry>
        </mxCell>
        <mxCell id="z39Naz20EpBCcd1Hh88v-394" value="" style="edgeStyle=none;rounded=0;orthogonalLoop=1;jettySize=auto;html=1;" edge="1" parent="1" source="z39Naz20EpBCcd1Hh88v-122" target="z39Naz20EpBCcd1Hh88v-390">
          <mxGeometry relative="1" as="geometry" />
        </mxCell>
        <mxCell id="z39Naz20EpBCcd1Hh88v-395" value="派生" style="edgeLabel;html=1;align=center;verticalAlign=middle;resizable=0;points=[];" vertex="1" connectable="0" parent="z39Naz20EpBCcd1Hh88v-394">
          <mxGeometry x="0.0908" y="1" relative="1" as="geometry">
            <mxPoint x="21" y="-7" as="offset" />
          </mxGeometry>
        </mxCell>
        <mxCell id="z39Naz20EpBCcd1Hh88v-422" value="" style="edgeStyle=none;rounded=0;orthogonalLoop=1;jettySize=auto;html=1;" edge="1" parent="1" source="z39Naz20EpBCcd1Hh88v-122" target="z39Naz20EpBCcd1Hh88v-418">
          <mxGeometry relative="1" as="geometry" />
        </mxCell>
        <mxCell id="z39Naz20EpBCcd1Hh88v-427" value="派生" style="edgeLabel;html=1;align=center;verticalAlign=middle;resizable=0;points=[];" vertex="1" connectable="0" parent="z39Naz20EpBCcd1Hh88v-422">
          <mxGeometry x="0.2484" y="2" relative="1" as="geometry">
            <mxPoint x="22" y="-13" as="offset" />
          </mxGeometry>
        </mxCell>
        <mxCell id="z39Naz20EpBCcd1Hh88v-122" value="AInfo" style="swimlane;html=1;fontStyle=1;align=center;verticalAlign=top;childLayout=stackLayout;horizontal=1;startSize=26;horizontalStack=0;resizeParent=1;resizeLast=0;collapsible=1;marginBottom=0;swimlaneFillColor=#ffffff;rounded=0;shadow=0;comic=0;labelBackgroundColor=none;strokeWidth=1;fillColor=none;fontFamily=Verdana;fontSize=12" vertex="1" parent="1">
          <mxGeometry x="60" y="960" width="230" height="100" as="geometry">
            <mxRectangle x="440" y="73" width="90" height="30" as="alternateBounds" />
          </mxGeometry>
        </mxCell>
        <mxCell id="z39Naz20EpBCcd1Hh88v-123" value="UbillboardComponent*SpriteComponent" style="text;html=1;strokeColor=none;fillColor=none;align=left;verticalAlign=top;spacingLeft=4;spacingRight=4;whiteSpace=wrap;overflow=hidden;rotatable=0;points=[[0,0.5],[1,0.5]];portConstraint=eastwest;" vertex="1" parent="z39Naz20EpBCcd1Hh88v-122">
          <mxGeometry y="26" width="230" height="26" as="geometry" />
        </mxCell>
        <mxCell id="z39Naz20EpBCcd1Hh88v-124" value="" style="line;html=1;strokeWidth=1;fillColor=none;align=left;verticalAlign=middle;spacingTop=-1;spacingLeft=3;spacingRight=3;rotatable=0;labelPosition=right;points=[];portConstraint=eastwest;" vertex="1" parent="z39Naz20EpBCcd1Hh88v-122">
          <mxGeometry y="52" width="230" height="8" as="geometry" />
        </mxCell>
        <mxCell id="z39Naz20EpBCcd1Hh88v-125" value="func" style="text;html=1;strokeColor=none;fillColor=none;align=left;verticalAlign=top;spacingLeft=4;spacingRight=4;whiteSpace=wrap;overflow=hidden;rotatable=0;points=[[0,0.5],[1,0.5]];portConstraint=eastwest;" vertex="1" parent="z39Naz20EpBCcd1Hh88v-122">
          <mxGeometry y="60" width="230" height="26" as="geometry" />
        </mxCell>
        <mxCell id="z39Naz20EpBCcd1Hh88v-136" style="edgeStyle=none;rounded=0;orthogonalLoop=1;jettySize=auto;html=1;" edge="1" parent="1" source="z39Naz20EpBCcd1Hh88v-131" target="z39Naz20EpBCcd1Hh88v-94">
          <mxGeometry relative="1" as="geometry" />
        </mxCell>
        <mxCell id="z39Naz20EpBCcd1Hh88v-137" value="组成" style="edgeLabel;html=1;align=center;verticalAlign=middle;resizable=0;points=[];" vertex="1" connectable="0" parent="z39Naz20EpBCcd1Hh88v-136">
          <mxGeometry x="-0.2205" y="-2" relative="1" as="geometry">
            <mxPoint y="-1" as="offset" />
          </mxGeometry>
        </mxCell>
        <mxCell id="z39Naz20EpBCcd1Hh88v-131" value="AWorldSettings" style="swimlane;html=1;fontStyle=1;align=center;verticalAlign=top;childLayout=stackLayout;horizontal=1;startSize=26;horizontalStack=0;resizeParent=1;resizeLast=0;collapsible=1;marginBottom=0;swimlaneFillColor=#ffffff;rounded=0;shadow=0;comic=0;labelBackgroundColor=none;strokeWidth=1;fillColor=none;fontFamily=Verdana;fontSize=12" vertex="1" parent="1">
          <mxGeometry x="360" y="917" width="310" height="100" as="geometry">
            <mxRectangle x="440" y="73" width="90" height="30" as="alternateBounds" />
          </mxGeometry>
        </mxCell>
        <mxCell id="z39Naz20EpBCcd1Hh88v-132" value="TSubclassOf&amp;lt;class AgameMode&amp;gt;DefaultGameMode" style="text;html=1;strokeColor=none;fillColor=none;align=left;verticalAlign=top;spacingLeft=4;spacingRight=4;whiteSpace=wrap;overflow=hidden;rotatable=0;points=[[0,0.5],[1,0.5]];portConstraint=eastwest;" vertex="1" parent="z39Naz20EpBCcd1Hh88v-131">
          <mxGeometry y="26" width="310" height="26" as="geometry" />
        </mxCell>
        <mxCell id="z39Naz20EpBCcd1Hh88v-133" value="" style="line;html=1;strokeWidth=1;fillColor=none;align=left;verticalAlign=middle;spacingTop=-1;spacingLeft=3;spacingRight=3;rotatable=0;labelPosition=right;points=[];portConstraint=eastwest;" vertex="1" parent="z39Naz20EpBCcd1Hh88v-131">
          <mxGeometry y="52" width="310" height="8" as="geometry" />
        </mxCell>
        <mxCell id="z39Naz20EpBCcd1Hh88v-134" value="func" style="text;html=1;strokeColor=none;fillColor=none;align=left;verticalAlign=top;spacingLeft=4;spacingRight=4;whiteSpace=wrap;overflow=hidden;rotatable=0;points=[[0,0.5],[1,0.5]];portConstraint=eastwest;" vertex="1" parent="z39Naz20EpBCcd1Hh88v-131">
          <mxGeometry y="60" width="310" height="26" as="geometry" />
        </mxCell>
        <mxCell id="z39Naz20EpBCcd1Hh88v-140" style="edgeStyle=none;rounded=0;orthogonalLoop=1;jettySize=auto;html=1;exitX=0.75;exitY=0;exitDx=0;exitDy=0;" edge="1" parent="1" source="z39Naz20EpBCcd1Hh88v-131" target="z39Naz20EpBCcd1Hh88v-131">
          <mxGeometry relative="1" as="geometry" />
        </mxCell>
        <mxCell id="z39Naz20EpBCcd1Hh88v-178" value="" style="edgeStyle=none;rounded=0;orthogonalLoop=1;jettySize=auto;html=1;" edge="1" parent="1" source="z39Naz20EpBCcd1Hh88v-141" target="z39Naz20EpBCcd1Hh88v-164">
          <mxGeometry relative="1" as="geometry" />
        </mxCell>
        <mxCell id="z39Naz20EpBCcd1Hh88v-181" value="组成" style="edgeLabel;html=1;align=center;verticalAlign=middle;resizable=0;points=[];" vertex="1" connectable="0" parent="z39Naz20EpBCcd1Hh88v-178">
          <mxGeometry x="-0.2016" y="-2" relative="1" as="geometry">
            <mxPoint x="-12" y="3" as="offset" />
          </mxGeometry>
        </mxCell>
        <mxCell id="z39Naz20EpBCcd1Hh88v-141" value="UWorld" style="swimlane;html=1;fontStyle=1;align=center;verticalAlign=top;childLayout=stackLayout;horizontal=1;startSize=26;horizontalStack=0;resizeParent=1;resizeLast=0;collapsible=1;marginBottom=0;swimlaneFillColor=#ffffff;rounded=0;shadow=0;comic=0;labelBackgroundColor=none;strokeWidth=1;fillColor=none;fontFamily=Verdana;fontSize=12" vertex="1" parent="1">
          <mxGeometry x="-60" y="557" width="410" height="346" as="geometry">
            <mxRectangle x="440" y="73" width="90" height="30" as="alternateBounds" />
          </mxGeometry>
        </mxCell>
        <mxCell id="z39Naz20EpBCcd1Hh88v-154" value="TArray&amp;lt;ULevel&amp;gt;Levels" style="text;html=1;strokeColor=none;fillColor=none;align=left;verticalAlign=top;spacingLeft=4;spacingRight=4;whiteSpace=wrap;overflow=hidden;rotatable=0;points=[[0,0.5],[1,0.5]];portConstraint=eastwest;" vertex="1" parent="z39Naz20EpBCcd1Hh88v-141">
          <mxGeometry y="26" width="410" height="26" as="geometry" />
        </mxCell>
        <mxCell id="z39Naz20EpBCcd1Hh88v-155" value="AGameMode*AuthorityGameMode" style="text;html=1;strokeColor=none;fillColor=none;align=left;verticalAlign=top;spacingLeft=4;spacingRight=4;whiteSpace=wrap;overflow=hidden;rotatable=0;points=[[0,0.5],[1,0.5]];portConstraint=eastwest;" vertex="1" parent="z39Naz20EpBCcd1Hh88v-141">
          <mxGeometry y="52" width="410" height="26" as="geometry" />
        </mxCell>
        <mxCell id="z39Naz20EpBCcd1Hh88v-147" value="AGameState*GameState" style="text;html=1;strokeColor=none;fillColor=none;align=left;verticalAlign=top;spacingLeft=4;spacingRight=4;whiteSpace=wrap;overflow=hidden;rotatable=0;points=[[0,0.5],[1,0.5]];portConstraint=eastwest;" vertex="1" parent="z39Naz20EpBCcd1Hh88v-141">
          <mxGeometry y="78" width="410" height="26" as="geometry" />
        </mxCell>
        <mxCell id="z39Naz20EpBCcd1Hh88v-157" value="UWorldComposition*WorldComposition" style="text;html=1;strokeColor=none;fillColor=none;align=left;verticalAlign=top;spacingLeft=4;spacingRight=4;whiteSpace=wrap;overflow=hidden;rotatable=0;points=[[0,0.5],[1,0.5]];portConstraint=eastwest;" vertex="1" parent="z39Naz20EpBCcd1Hh88v-141">
          <mxGeometry y="104" width="410" height="26" as="geometry" />
        </mxCell>
        <mxCell id="z39Naz20EpBCcd1Hh88v-156" value="FPhysScene*PhysicsScene" style="text;html=1;strokeColor=none;fillColor=none;align=left;verticalAlign=top;spacingLeft=4;spacingRight=4;whiteSpace=wrap;overflow=hidden;rotatable=0;points=[[0,0.5],[1,0.5]];portConstraint=eastwest;" vertex="1" parent="z39Naz20EpBCcd1Hh88v-141">
          <mxGeometry y="130" width="410" height="26" as="geometry" />
        </mxCell>
        <mxCell id="z39Naz20EpBCcd1Hh88v-158" value="ULevel*PersistentLevel一开始就加载进World" style="text;html=1;strokeColor=none;fillColor=none;align=left;verticalAlign=top;spacingLeft=4;spacingRight=4;whiteSpace=wrap;overflow=hidden;rotatable=0;points=[[0,0.5],[1,0.5]];portConstraint=eastwest;" vertex="1" parent="z39Naz20EpBCcd1Hh88v-141">
          <mxGeometry y="156" width="410" height="26" as="geometry" />
        </mxCell>
        <mxCell id="z39Naz20EpBCcd1Hh88v-159" value="ULevel*CurrentLevel" style="text;html=1;strokeColor=none;fillColor=none;align=left;verticalAlign=top;spacingLeft=4;spacingRight=4;whiteSpace=wrap;overflow=hidden;rotatable=0;points=[[0,0.5],[1,0.5]];portConstraint=eastwest;" vertex="1" parent="z39Naz20EpBCcd1Hh88v-141">
          <mxGeometry y="182" width="410" height="26" as="geometry" />
        </mxCell>
        <mxCell id="z39Naz20EpBCcd1Hh88v-160" value="TArray&amp;lt;ULevelStreaming*&amp;gt;StreamingLevels后续动态加载" style="text;html=1;strokeColor=none;fillColor=none;align=left;verticalAlign=top;spacingLeft=4;spacingRight=4;whiteSpace=wrap;overflow=hidden;rotatable=0;points=[[0,0.5],[1,0.5]];portConstraint=eastwest;" vertex="1" parent="z39Naz20EpBCcd1Hh88v-141">
          <mxGeometry y="208" width="410" height="26" as="geometry" />
        </mxCell>
        <mxCell id="z39Naz20EpBCcd1Hh88v-161" value="TArray&amp;lt;TAutoWeakObjectPtr&amp;lt;AController&amp;gt;&amp;gt;ControllerList" style="text;html=1;strokeColor=none;fillColor=none;align=left;verticalAlign=top;spacingLeft=4;spacingRight=4;whiteSpace=wrap;overflow=hidden;rotatable=0;points=[[0,0.5],[1,0.5]];portConstraint=eastwest;" vertex="1" parent="z39Naz20EpBCcd1Hh88v-141">
          <mxGeometry y="234" width="410" height="26" as="geometry" />
        </mxCell>
        <mxCell id="z39Naz20EpBCcd1Hh88v-162" value="TArray&amp;lt;TAutoWeakObjectPtr&amp;lt;APlayerControllerList&amp;gt;&amp;gt;PlayerControllerList" style="text;html=1;strokeColor=none;fillColor=none;align=left;verticalAlign=top;spacingLeft=4;spacingRight=4;whiteSpace=wrap;overflow=hidden;rotatable=0;points=[[0,0.5],[1,0.5]];portConstraint=eastwest;" vertex="1" parent="z39Naz20EpBCcd1Hh88v-141">
          <mxGeometry y="260" width="410" height="26" as="geometry" />
        </mxCell>
        <mxCell id="z39Naz20EpBCcd1Hh88v-163" value="TArray&amp;lt;TAutoWeakObjectPtr&amp;lt;APawn&amp;gt;&amp;gt;PawnList" style="text;html=1;strokeColor=none;fillColor=none;align=left;verticalAlign=top;spacingLeft=4;spacingRight=4;whiteSpace=wrap;overflow=hidden;rotatable=0;points=[[0,0.5],[1,0.5]];portConstraint=eastwest;" vertex="1" parent="z39Naz20EpBCcd1Hh88v-141">
          <mxGeometry y="286" width="410" height="26" as="geometry" />
        </mxCell>
        <mxCell id="z39Naz20EpBCcd1Hh88v-148" value="" style="line;html=1;strokeWidth=1;fillColor=none;align=left;verticalAlign=middle;spacingTop=-1;spacingLeft=3;spacingRight=3;rotatable=0;labelPosition=right;points=[];portConstraint=eastwest;" vertex="1" parent="z39Naz20EpBCcd1Hh88v-141">
          <mxGeometry y="312" width="410" height="8" as="geometry" />
        </mxCell>
        <mxCell id="z39Naz20EpBCcd1Hh88v-149" value="+ method(type): type" style="text;html=1;strokeColor=none;fillColor=none;align=left;verticalAlign=top;spacingLeft=4;spacingRight=4;whiteSpace=wrap;overflow=hidden;rotatable=0;points=[[0,0.5],[1,0.5]];portConstraint=eastwest;" vertex="1" parent="z39Naz20EpBCcd1Hh88v-141">
          <mxGeometry y="320" width="410" height="26" as="geometry" />
        </mxCell>
        <mxCell id="z39Naz20EpBCcd1Hh88v-195" style="edgeStyle=none;rounded=0;orthogonalLoop=1;jettySize=auto;html=1;" edge="1" parent="1" source="z39Naz20EpBCcd1Hh88v-164" target="z39Naz20EpBCcd1Hh88v-183">
          <mxGeometry relative="1" as="geometry" />
        </mxCell>
        <mxCell id="z39Naz20EpBCcd1Hh88v-196" value="组成" style="edgeLabel;html=1;align=center;verticalAlign=middle;resizable=0;points=[];" vertex="1" connectable="0" parent="z39Naz20EpBCcd1Hh88v-195">
          <mxGeometry x="0.1234" y="1" relative="1" as="geometry">
            <mxPoint x="5" as="offset" />
          </mxGeometry>
        </mxCell>
        <mxCell id="z39Naz20EpBCcd1Hh88v-228" style="edgeStyle=none;rounded=0;orthogonalLoop=1;jettySize=auto;html=1;" edge="1" parent="1" source="z39Naz20EpBCcd1Hh88v-164" target="z39Naz20EpBCcd1Hh88v-199">
          <mxGeometry relative="1" as="geometry" />
        </mxCell>
        <mxCell id="z39Naz20EpBCcd1Hh88v-229" value="组成" style="edgeLabel;html=1;align=center;verticalAlign=middle;resizable=0;points=[];" vertex="1" connectable="0" parent="z39Naz20EpBCcd1Hh88v-228">
          <mxGeometry x="-0.4433" y="-1" relative="1" as="geometry">
            <mxPoint as="offset" />
          </mxGeometry>
        </mxCell>
        <mxCell id="z39Naz20EpBCcd1Hh88v-164" value="FWorldContext(唯一)" style="swimlane;html=1;fontStyle=1;align=center;verticalAlign=top;childLayout=stackLayout;horizontal=1;startSize=26;horizontalStack=0;resizeParent=1;resizeLast=0;collapsible=1;marginBottom=0;swimlaneFillColor=#ffffff;rounded=0;shadow=0;comic=0;labelBackgroundColor=none;strokeWidth=1;fillColor=none;fontFamily=Verdana;fontSize=12" vertex="1" parent="1">
          <mxGeometry x="-240" y="270" width="250" height="218" as="geometry">
            <mxRectangle x="440" y="73" width="90" height="30" as="alternateBounds" />
          </mxGeometry>
        </mxCell>
        <mxCell id="z39Naz20EpBCcd1Hh88v-175" value="切换World的时候保存切换过程信息和目标World上下文信息&lt;br&gt;外部不应该直接操作worldcontext" style="text;html=1;strokeColor=none;fillColor=none;align=left;verticalAlign=top;spacingLeft=4;spacingRight=4;whiteSpace=wrap;overflow=hidden;rotatable=0;points=[[0,0.5],[1,0.5]];portConstraint=eastwest;" vertex="1" parent="z39Naz20EpBCcd1Hh88v-164">
          <mxGeometry y="26" width="250" height="54" as="geometry" />
        </mxCell>
        <mxCell id="z39Naz20EpBCcd1Hh88v-182" value="UGameInstance*OwningGameInstance" style="text;html=1;strokeColor=none;fillColor=none;align=left;verticalAlign=top;spacingLeft=4;spacingRight=4;whiteSpace=wrap;overflow=hidden;rotatable=0;points=[[0,0.5],[1,0.5]];portConstraint=eastwest;" vertex="1" parent="z39Naz20EpBCcd1Hh88v-164">
          <mxGeometry y="80" width="250" height="26" as="geometry" />
        </mxCell>
        <mxCell id="z39Naz20EpBCcd1Hh88v-179" value="UWorld*ThisCurrentWorld当前World" style="text;html=1;strokeColor=none;fillColor=none;align=left;verticalAlign=top;spacingLeft=4;spacingRight=4;whiteSpace=wrap;overflow=hidden;rotatable=0;points=[[0,0.5],[1,0.5]];portConstraint=eastwest;" vertex="1" parent="z39Naz20EpBCcd1Hh88v-164">
          <mxGeometry y="106" width="250" height="26" as="geometry" />
        </mxCell>
        <mxCell id="z39Naz20EpBCcd1Hh88v-180" value="UGameViewportClient*GameViewport" style="text;html=1;strokeColor=none;fillColor=none;align=left;verticalAlign=top;spacingLeft=4;spacingRight=4;whiteSpace=wrap;overflow=hidden;rotatable=0;points=[[0,0.5],[1,0.5]];portConstraint=eastwest;" vertex="1" parent="z39Naz20EpBCcd1Hh88v-164">
          <mxGeometry y="132" width="250" height="26" as="geometry" />
        </mxCell>
        <mxCell id="z39Naz20EpBCcd1Hh88v-499" value="TArray&amp;lt;FNamedNetDriver&amp;gt;ActivenetDrivers" style="text;html=1;strokeColor=none;fillColor=none;align=left;verticalAlign=top;spacingLeft=4;spacingRight=4;whiteSpace=wrap;overflow=hidden;rotatable=0;points=[[0,0.5],[1,0.5]];portConstraint=eastwest;" vertex="1" parent="z39Naz20EpBCcd1Hh88v-164">
          <mxGeometry y="158" width="250" height="26" as="geometry" />
        </mxCell>
        <mxCell id="z39Naz20EpBCcd1Hh88v-176" value="" style="line;html=1;strokeWidth=1;fillColor=none;align=left;verticalAlign=middle;spacingTop=-1;spacingLeft=3;spacingRight=3;rotatable=0;labelPosition=right;points=[];portConstraint=eastwest;" vertex="1" parent="z39Naz20EpBCcd1Hh88v-164">
          <mxGeometry y="184" width="250" height="8" as="geometry" />
        </mxCell>
        <mxCell id="z39Naz20EpBCcd1Hh88v-177" value="+ method(type): type" style="text;html=1;strokeColor=none;fillColor=none;align=left;verticalAlign=top;spacingLeft=4;spacingRight=4;whiteSpace=wrap;overflow=hidden;rotatable=0;points=[[0,0.5],[1,0.5]];portConstraint=eastwest;" vertex="1" parent="z39Naz20EpBCcd1Hh88v-164">
          <mxGeometry y="192" width="250" height="26" as="geometry" />
        </mxCell>
        <mxCell id="z39Naz20EpBCcd1Hh88v-215" style="edgeStyle=none;rounded=0;orthogonalLoop=1;jettySize=auto;html=1;" edge="1" parent="1" source="z39Naz20EpBCcd1Hh88v-183" target="z39Naz20EpBCcd1Hh88v-207">
          <mxGeometry relative="1" as="geometry" />
        </mxCell>
        <mxCell id="z39Naz20EpBCcd1Hh88v-216" value="组成" style="edgeLabel;html=1;align=center;verticalAlign=middle;resizable=0;points=[];" vertex="1" connectable="0" parent="z39Naz20EpBCcd1Hh88v-215">
          <mxGeometry x="0.169" y="2" relative="1" as="geometry">
            <mxPoint x="-1" y="11" as="offset" />
          </mxGeometry>
        </mxCell>
        <mxCell id="z39Naz20EpBCcd1Hh88v-223" style="edgeStyle=none;rounded=0;orthogonalLoop=1;jettySize=auto;html=1;" edge="1" parent="1" source="z39Naz20EpBCcd1Hh88v-183" target="z39Naz20EpBCcd1Hh88v-217">
          <mxGeometry relative="1" as="geometry" />
        </mxCell>
        <mxCell id="z39Naz20EpBCcd1Hh88v-224" value="组成" style="edgeLabel;html=1;align=center;verticalAlign=middle;resizable=0;points=[];" vertex="1" connectable="0" parent="z39Naz20EpBCcd1Hh88v-223">
          <mxGeometry x="-0.1029" y="2" relative="1" as="geometry">
            <mxPoint x="11" y="-4" as="offset" />
          </mxGeometry>
        </mxCell>
        <mxCell id="z39Naz20EpBCcd1Hh88v-183" value="UGameInstance(唯一)" style="swimlane;html=1;fontStyle=1;align=center;verticalAlign=top;childLayout=stackLayout;horizontal=1;startSize=26;horizontalStack=0;resizeParent=1;resizeLast=0;collapsible=1;marginBottom=0;swimlaneFillColor=#ffffff;rounded=0;shadow=0;comic=0;labelBackgroundColor=none;strokeWidth=1;fillColor=none;fontFamily=Verdana;fontSize=12" vertex="1" parent="1">
          <mxGeometry x="-1340" y="308" width="490" height="232" as="geometry">
            <mxRectangle x="440" y="73" width="90" height="30" as="alternateBounds" />
          </mxGeometry>
        </mxCell>
        <mxCell id="z39Naz20EpBCcd1Hh88v-184" value="无论Level切换，数据仍然保存" style="text;html=1;strokeColor=none;fillColor=none;align=left;verticalAlign=top;spacingLeft=4;spacingRight=4;whiteSpace=wrap;overflow=hidden;rotatable=0;points=[[0,0.5],[1,0.5]];portConstraint=eastwest;" vertex="1" parent="z39Naz20EpBCcd1Hh88v-183">
          <mxGeometry y="26" width="490" height="26" as="geometry" />
        </mxCell>
        <mxCell id="z39Naz20EpBCcd1Hh88v-198" value="FWorldContext*WorldContext" style="text;html=1;strokeColor=none;fillColor=none;align=left;verticalAlign=top;spacingLeft=4;spacingRight=4;whiteSpace=wrap;overflow=hidden;rotatable=0;points=[[0,0.5],[1,0.5]];portConstraint=eastwest;" vertex="1" parent="z39Naz20EpBCcd1Hh88v-183">
          <mxGeometry y="52" width="490" height="26" as="geometry" />
        </mxCell>
        <mxCell id="z39Naz20EpBCcd1Hh88v-185" value="TArray&amp;lt;ULocalPlayer*&amp;gt;LocalPlayers" style="text;html=1;strokeColor=none;fillColor=none;align=left;verticalAlign=top;spacingLeft=4;spacingRight=4;whiteSpace=wrap;overflow=hidden;rotatable=0;points=[[0,0.5],[1,0.5]];portConstraint=eastwest;" vertex="1" parent="z39Naz20EpBCcd1Hh88v-183">
          <mxGeometry y="78" width="490" height="26" as="geometry" />
        </mxCell>
        <mxCell id="z39Naz20EpBCcd1Hh88v-189" value="UOnlineSession*OnlineSession" style="text;html=1;strokeColor=none;fillColor=none;align=left;verticalAlign=top;spacingLeft=4;spacingRight=4;whiteSpace=wrap;overflow=hidden;rotatable=0;points=[[0,0.5],[1,0.5]];portConstraint=eastwest;" vertex="1" parent="z39Naz20EpBCcd1Hh88v-183">
          <mxGeometry y="104" width="490" height="26" as="geometry" />
        </mxCell>
        <mxCell id="z39Naz20EpBCcd1Hh88v-190" value="" style="line;html=1;strokeWidth=1;fillColor=none;align=left;verticalAlign=middle;spacingTop=-1;spacingLeft=3;spacingRight=3;rotatable=0;labelPosition=right;points=[];portConstraint=eastwest;" vertex="1" parent="z39Naz20EpBCcd1Hh88v-183">
          <mxGeometry y="130" width="490" height="8" as="geometry" />
        </mxCell>
        <mxCell id="z39Naz20EpBCcd1Hh88v-191" value="ULocalPlayer*CreateLocalPlayer(int32 ControllerId,FString&amp;amp;OutError,bool bSpawnActor)" style="text;html=1;strokeColor=none;fillColor=none;align=left;verticalAlign=top;spacingLeft=4;spacingRight=4;whiteSpace=wrap;overflow=hidden;rotatable=0;points=[[0,0.5],[1,0.5]];portConstraint=eastwest;" vertex="1" parent="z39Naz20EpBCcd1Hh88v-183">
          <mxGeometry y="138" width="490" height="26" as="geometry" />
        </mxCell>
        <mxCell id="z39Naz20EpBCcd1Hh88v-534" value="AGameModeBase*CreateGameModeForURL(FURL inURL)" style="text;html=1;strokeColor=none;fillColor=none;align=left;verticalAlign=top;spacingLeft=4;spacingRight=4;whiteSpace=wrap;overflow=hidden;rotatable=0;points=[[0,0.5],[1,0.5]];portConstraint=eastwest;" vertex="1" parent="z39Naz20EpBCcd1Hh88v-183">
          <mxGeometry y="164" width="490" height="26" as="geometry" />
        </mxCell>
        <mxCell id="z39Naz20EpBCcd1Hh88v-535" value="本类大概4种接口：引擎初始化加载Init和ShutDown等，Player的创建如CreateLocalPlayer和GetLocalPlayer等，GameMode的重载修改，OnlineSession的管理" style="text;html=1;strokeColor=none;fillColor=none;align=left;verticalAlign=top;spacingLeft=4;spacingRight=4;whiteSpace=wrap;overflow=hidden;rotatable=0;points=[[0,0.5],[1,0.5]];portConstraint=eastwest;" vertex="1" parent="z39Naz20EpBCcd1Hh88v-183">
          <mxGeometry y="190" width="490" height="40" as="geometry" />
        </mxCell>
        <mxCell id="z39Naz20EpBCcd1Hh88v-211" value="" style="edgeStyle=none;rounded=0;orthogonalLoop=1;jettySize=auto;html=1;" edge="1" parent="1" source="z39Naz20EpBCcd1Hh88v-199" target="z39Naz20EpBCcd1Hh88v-207">
          <mxGeometry relative="1" as="geometry" />
        </mxCell>
        <mxCell id="z39Naz20EpBCcd1Hh88v-212" value="派生" style="edgeLabel;html=1;align=center;verticalAlign=middle;resizable=0;points=[];" vertex="1" connectable="0" parent="z39Naz20EpBCcd1Hh88v-211">
          <mxGeometry x="-0.381" y="3" relative="1" as="geometry">
            <mxPoint x="-22" y="6" as="offset" />
          </mxGeometry>
        </mxCell>
        <mxCell id="z39Naz20EpBCcd1Hh88v-221" style="edgeStyle=none;rounded=0;orthogonalLoop=1;jettySize=auto;html=1;" edge="1" parent="1" source="z39Naz20EpBCcd1Hh88v-199" target="z39Naz20EpBCcd1Hh88v-217">
          <mxGeometry relative="1" as="geometry" />
        </mxCell>
        <mxCell id="z39Naz20EpBCcd1Hh88v-227" value="派生" style="edgeLabel;html=1;align=center;verticalAlign=middle;resizable=0;points=[];" vertex="1" connectable="0" parent="z39Naz20EpBCcd1Hh88v-221">
          <mxGeometry x="-0.4114" relative="1" as="geometry">
            <mxPoint y="24" as="offset" />
          </mxGeometry>
        </mxCell>
        <mxCell id="z39Naz20EpBCcd1Hh88v-234" value="" style="edgeStyle=none;rounded=0;orthogonalLoop=1;jettySize=auto;html=1;" edge="1" parent="1" source="z39Naz20EpBCcd1Hh88v-199" target="z39Naz20EpBCcd1Hh88v-536">
          <mxGeometry relative="1" as="geometry">
            <mxPoint x="80" y="182.25806451612902" as="targetPoint" />
          </mxGeometry>
        </mxCell>
        <mxCell id="z39Naz20EpBCcd1Hh88v-235" value="实例化" style="edgeLabel;html=1;align=center;verticalAlign=middle;resizable=0;points=[];" vertex="1" connectable="0" parent="z39Naz20EpBCcd1Hh88v-234">
          <mxGeometry x="-0.1045" y="1" relative="1" as="geometry">
            <mxPoint as="offset" />
          </mxGeometry>
        </mxCell>
        <mxCell id="z39Naz20EpBCcd1Hh88v-199" value="UEngine" style="swimlane;html=1;fontStyle=1;align=center;verticalAlign=top;childLayout=stackLayout;horizontal=1;startSize=26;horizontalStack=0;resizeParent=1;resizeLast=0;collapsible=1;marginBottom=0;swimlaneFillColor=#ffffff;rounded=0;shadow=0;comic=0;labelBackgroundColor=none;strokeWidth=1;fillColor=none;fontFamily=Verdana;fontSize=12" vertex="1" parent="1">
          <mxGeometry x="-240" y="100" width="240" height="100" as="geometry">
            <mxRectangle x="440" y="73" width="90" height="30" as="alternateBounds" />
          </mxGeometry>
        </mxCell>
        <mxCell id="z39Naz20EpBCcd1Hh88v-203" value="TIndirectArray&amp;lt;FWorldContext&amp;gt;WorldList" style="text;html=1;strokeColor=none;fillColor=none;align=left;verticalAlign=top;spacingLeft=4;spacingRight=4;whiteSpace=wrap;overflow=hidden;rotatable=0;points=[[0,0.5],[1,0.5]];portConstraint=eastwest;" vertex="1" parent="z39Naz20EpBCcd1Hh88v-199">
          <mxGeometry y="26" width="240" height="26" as="geometry" />
        </mxCell>
        <mxCell id="z39Naz20EpBCcd1Hh88v-204" value="" style="line;html=1;strokeWidth=1;fillColor=none;align=left;verticalAlign=middle;spacingTop=-1;spacingLeft=3;spacingRight=3;rotatable=0;labelPosition=right;points=[];portConstraint=eastwest;" vertex="1" parent="z39Naz20EpBCcd1Hh88v-199">
          <mxGeometry y="52" width="240" height="8" as="geometry" />
        </mxCell>
        <mxCell id="z39Naz20EpBCcd1Hh88v-205" value="+ method(type): type" style="text;html=1;strokeColor=none;fillColor=none;align=left;verticalAlign=top;spacingLeft=4;spacingRight=4;whiteSpace=wrap;overflow=hidden;rotatable=0;points=[[0,0.5],[1,0.5]];portConstraint=eastwest;" vertex="1" parent="z39Naz20EpBCcd1Hh88v-199">
          <mxGeometry y="60" width="240" height="26" as="geometry" />
        </mxCell>
        <mxCell id="z39Naz20EpBCcd1Hh88v-207" value="UGameEngine" style="swimlane;html=1;fontStyle=1;align=center;verticalAlign=top;childLayout=stackLayout;horizontal=1;startSize=26;horizontalStack=0;resizeParent=1;resizeLast=0;collapsible=1;marginBottom=0;swimlaneFillColor=#ffffff;rounded=0;shadow=0;comic=0;labelBackgroundColor=none;strokeWidth=1;fillColor=none;fontFamily=Verdana;fontSize=12" vertex="1" parent="1">
          <mxGeometry x="-590" y="232" width="270" height="100" as="geometry">
            <mxRectangle x="440" y="73" width="90" height="30" as="alternateBounds" />
          </mxGeometry>
        </mxCell>
        <mxCell id="z39Naz20EpBCcd1Hh88v-208" value="UGameInstance*GameInstance实例在这里创建" style="text;html=1;strokeColor=none;fillColor=none;align=left;verticalAlign=top;spacingLeft=4;spacingRight=4;whiteSpace=wrap;overflow=hidden;rotatable=0;points=[[0,0.5],[1,0.5]];portConstraint=eastwest;" vertex="1" parent="z39Naz20EpBCcd1Hh88v-207">
          <mxGeometry y="26" width="270" height="26" as="geometry" />
        </mxCell>
        <mxCell id="z39Naz20EpBCcd1Hh88v-209" value="" style="line;html=1;strokeWidth=1;fillColor=none;align=left;verticalAlign=middle;spacingTop=-1;spacingLeft=3;spacingRight=3;rotatable=0;labelPosition=right;points=[];portConstraint=eastwest;" vertex="1" parent="z39Naz20EpBCcd1Hh88v-207">
          <mxGeometry y="52" width="270" height="8" as="geometry" />
        </mxCell>
        <mxCell id="z39Naz20EpBCcd1Hh88v-210" value="+ method(type): type" style="text;html=1;strokeColor=none;fillColor=none;align=left;verticalAlign=top;spacingLeft=4;spacingRight=4;whiteSpace=wrap;overflow=hidden;rotatable=0;points=[[0,0.5],[1,0.5]];portConstraint=eastwest;" vertex="1" parent="z39Naz20EpBCcd1Hh88v-207">
          <mxGeometry y="60" width="270" height="26" as="geometry" />
        </mxCell>
        <mxCell id="z39Naz20EpBCcd1Hh88v-217" value="UEditorEngine" style="swimlane;html=1;fontStyle=1;align=center;verticalAlign=top;childLayout=stackLayout;horizontal=1;startSize=26;horizontalStack=0;resizeParent=1;resizeLast=0;collapsible=1;marginBottom=0;swimlaneFillColor=#ffffff;rounded=0;shadow=0;comic=0;labelBackgroundColor=none;strokeWidth=1;fillColor=none;fontFamily=Verdana;fontSize=12" vertex="1" parent="1">
          <mxGeometry x="-890" y="122" width="280" height="138" as="geometry">
            <mxRectangle x="440" y="73" width="90" height="30" as="alternateBounds" />
          </mxGeometry>
        </mxCell>
        <mxCell id="z39Naz20EpBCcd1Hh88v-225" value="UWorld*PlayWorld" style="text;html=1;strokeColor=none;fillColor=none;align=left;verticalAlign=top;spacingLeft=4;spacingRight=4;whiteSpace=wrap;overflow=hidden;rotatable=0;points=[[0,0.5],[1,0.5]];portConstraint=eastwest;" vertex="1" parent="z39Naz20EpBCcd1Hh88v-217">
          <mxGeometry y="26" width="280" height="26" as="geometry" />
        </mxCell>
        <mxCell id="z39Naz20EpBCcd1Hh88v-218" value="UWorld*EditorWorld" style="text;html=1;strokeColor=none;fillColor=none;align=left;verticalAlign=top;spacingLeft=4;spacingRight=4;whiteSpace=wrap;overflow=hidden;rotatable=0;points=[[0,0.5],[1,0.5]];portConstraint=eastwest;" vertex="1" parent="z39Naz20EpBCcd1Hh88v-217">
          <mxGeometry y="52" width="280" height="26" as="geometry" />
        </mxCell>
        <mxCell id="z39Naz20EpBCcd1Hh88v-226" value="TArray&amp;lt;FEditorViewportClient*&amp;gt;AllViewportClients" style="text;html=1;strokeColor=none;fillColor=none;align=left;verticalAlign=top;spacingLeft=4;spacingRight=4;whiteSpace=wrap;overflow=hidden;rotatable=0;points=[[0,0.5],[1,0.5]];portConstraint=eastwest;" vertex="1" parent="z39Naz20EpBCcd1Hh88v-217">
          <mxGeometry y="78" width="280" height="26" as="geometry" />
        </mxCell>
        <mxCell id="z39Naz20EpBCcd1Hh88v-219" value="" style="line;html=1;strokeWidth=1;fillColor=none;align=left;verticalAlign=middle;spacingTop=-1;spacingLeft=3;spacingRight=3;rotatable=0;labelPosition=right;points=[];portConstraint=eastwest;" vertex="1" parent="z39Naz20EpBCcd1Hh88v-217">
          <mxGeometry y="104" width="280" height="8" as="geometry" />
        </mxCell>
        <mxCell id="z39Naz20EpBCcd1Hh88v-220" value="+ method(type): type" style="text;html=1;strokeColor=none;fillColor=none;align=left;verticalAlign=top;spacingLeft=4;spacingRight=4;whiteSpace=wrap;overflow=hidden;rotatable=0;points=[[0,0.5],[1,0.5]];portConstraint=eastwest;" vertex="1" parent="z39Naz20EpBCcd1Hh88v-217">
          <mxGeometry y="112" width="280" height="26" as="geometry" />
        </mxCell>
        <mxCell id="z39Naz20EpBCcd1Hh88v-236" value="UGameplayStatics" style="swimlane;html=1;fontStyle=1;align=center;verticalAlign=top;childLayout=stackLayout;horizontal=1;startSize=26;horizontalStack=0;resizeParent=1;resizeLast=0;collapsible=1;marginBottom=0;swimlaneFillColor=#ffffff;rounded=0;shadow=0;comic=0;labelBackgroundColor=none;strokeWidth=1;fillColor=none;fontFamily=Verdana;fontSize=12" vertex="1" parent="1">
          <mxGeometry x="-1540" y="60" width="210" height="180" as="geometry">
            <mxRectangle x="440" y="73" width="90" height="30" as="alternateBounds" />
          </mxGeometry>
        </mxCell>
        <mxCell id="z39Naz20EpBCcd1Hh88v-240" value="操作蓝图函数库" style="text;html=1;strokeColor=none;fillColor=none;align=left;verticalAlign=top;spacingLeft=4;spacingRight=4;whiteSpace=wrap;overflow=hidden;rotatable=0;points=[[0,0.5],[1,0.5]];portConstraint=eastwest;" vertex="1" parent="z39Naz20EpBCcd1Hh88v-236">
          <mxGeometry y="26" width="210" height="26" as="geometry" />
        </mxCell>
        <mxCell id="z39Naz20EpBCcd1Hh88v-241" value="" style="line;html=1;strokeWidth=1;fillColor=none;align=left;verticalAlign=middle;spacingTop=-1;spacingLeft=3;spacingRight=3;rotatable=0;labelPosition=right;points=[];portConstraint=eastwest;" vertex="1" parent="z39Naz20EpBCcd1Hh88v-236">
          <mxGeometry y="52" width="210" height="8" as="geometry" />
        </mxCell>
        <mxCell id="z39Naz20EpBCcd1Hh88v-242" value="+ method(type): type" style="text;html=1;strokeColor=none;fillColor=none;align=left;verticalAlign=top;spacingLeft=4;spacingRight=4;whiteSpace=wrap;overflow=hidden;rotatable=0;points=[[0,0.5],[1,0.5]];portConstraint=eastwest;" vertex="1" parent="z39Naz20EpBCcd1Hh88v-236">
          <mxGeometry y="60" width="210" height="26" as="geometry" />
        </mxCell>
        <mxCell id="z39Naz20EpBCcd1Hh88v-248" style="edgeStyle=none;rounded=0;orthogonalLoop=1;jettySize=auto;html=1;" edge="1" parent="1" source="z39Naz20EpBCcd1Hh88v-243" target="z39Naz20EpBCcd1Hh88v-236">
          <mxGeometry relative="1" as="geometry" />
        </mxCell>
        <mxCell id="z39Naz20EpBCcd1Hh88v-249" value="派生" style="edgeLabel;html=1;align=center;verticalAlign=middle;resizable=0;points=[];" vertex="1" connectable="0" parent="z39Naz20EpBCcd1Hh88v-248">
          <mxGeometry x="0.4579" y="2" relative="1" as="geometry">
            <mxPoint x="55" y="-13" as="offset" />
          </mxGeometry>
        </mxCell>
        <mxCell id="z39Naz20EpBCcd1Hh88v-243" value="UBlurprintFunctionLibrary" style="swimlane;html=1;fontStyle=1;align=center;verticalAlign=top;childLayout=stackLayout;horizontal=1;startSize=26;horizontalStack=0;resizeParent=1;resizeLast=0;collapsible=1;marginBottom=0;swimlaneFillColor=#ffffff;rounded=0;shadow=0;comic=0;labelBackgroundColor=none;strokeWidth=1;fillColor=none;fontFamily=Verdana;fontSize=12" vertex="1" parent="1">
          <mxGeometry x="-1130" width="210" height="180" as="geometry">
            <mxRectangle x="440" y="73" width="90" height="30" as="alternateBounds" />
          </mxGeometry>
        </mxCell>
        <mxCell id="z39Naz20EpBCcd1Hh88v-244" value="蓝图函数库" style="text;html=1;strokeColor=none;fillColor=none;align=left;verticalAlign=top;spacingLeft=4;spacingRight=4;whiteSpace=wrap;overflow=hidden;rotatable=0;points=[[0,0.5],[1,0.5]];portConstraint=eastwest;" vertex="1" parent="z39Naz20EpBCcd1Hh88v-243">
          <mxGeometry y="26" width="210" height="26" as="geometry" />
        </mxCell>
        <mxCell id="z39Naz20EpBCcd1Hh88v-245" value="" style="line;html=1;strokeWidth=1;fillColor=none;align=left;verticalAlign=middle;spacingTop=-1;spacingLeft=3;spacingRight=3;rotatable=0;labelPosition=right;points=[];portConstraint=eastwest;" vertex="1" parent="z39Naz20EpBCcd1Hh88v-243">
          <mxGeometry y="52" width="210" height="8" as="geometry" />
        </mxCell>
        <mxCell id="z39Naz20EpBCcd1Hh88v-246" value="+ method(type): type" style="text;html=1;strokeColor=none;fillColor=none;align=left;verticalAlign=top;spacingLeft=4;spacingRight=4;whiteSpace=wrap;overflow=hidden;rotatable=0;points=[[0,0.5],[1,0.5]];portConstraint=eastwest;" vertex="1" parent="z39Naz20EpBCcd1Hh88v-243">
          <mxGeometry y="60" width="210" height="26" as="geometry" />
        </mxCell>
        <mxCell id="z39Naz20EpBCcd1Hh88v-250" style="edgeStyle=none;rounded=0;orthogonalLoop=1;jettySize=auto;html=1;" edge="1" parent="1" source="z39Naz20EpBCcd1Hh88v-30" target="z39Naz20EpBCcd1Hh88v-243">
          <mxGeometry relative="1" as="geometry" />
        </mxCell>
        <mxCell id="z39Naz20EpBCcd1Hh88v-252" value="派生" style="edgeLabel;html=1;align=center;verticalAlign=middle;resizable=0;points=[];" vertex="1" connectable="0" parent="z39Naz20EpBCcd1Hh88v-250">
          <mxGeometry x="0.4063" y="-3" relative="1" as="geometry">
            <mxPoint as="offset" />
          </mxGeometry>
        </mxCell>
        <mxCell id="z39Naz20EpBCcd1Hh88v-282" value="" style="edgeStyle=none;rounded=0;orthogonalLoop=1;jettySize=auto;html=1;" edge="1" parent="1" source="z39Naz20EpBCcd1Hh88v-259" target="z39Naz20EpBCcd1Hh88v-274">
          <mxGeometry relative="1" as="geometry" />
        </mxCell>
        <mxCell id="z39Naz20EpBCcd1Hh88v-285" value="派生" style="edgeLabel;html=1;align=center;verticalAlign=middle;resizable=0;points=[];" vertex="1" connectable="0" parent="z39Naz20EpBCcd1Hh88v-282">
          <mxGeometry x="-0.3057" y="1" relative="1" as="geometry">
            <mxPoint x="15" y="19" as="offset" />
          </mxGeometry>
        </mxCell>
        <mxCell id="z39Naz20EpBCcd1Hh88v-294" value="" style="edgeStyle=none;rounded=0;orthogonalLoop=1;jettySize=auto;html=1;" edge="1" parent="1" source="z39Naz20EpBCcd1Hh88v-259" target="z39Naz20EpBCcd1Hh88v-286">
          <mxGeometry relative="1" as="geometry" />
        </mxCell>
        <mxCell id="z39Naz20EpBCcd1Hh88v-304" value="派生" style="edgeLabel;html=1;align=center;verticalAlign=middle;resizable=0;points=[];" vertex="1" connectable="0" parent="z39Naz20EpBCcd1Hh88v-294">
          <mxGeometry x="0.3584" y="1" relative="1" as="geometry">
            <mxPoint x="-4" y="-15" as="offset" />
          </mxGeometry>
        </mxCell>
        <mxCell id="z39Naz20EpBCcd1Hh88v-259" value="APawn" style="swimlane;html=1;fontStyle=1;align=center;verticalAlign=top;childLayout=stackLayout;horizontal=1;startSize=26;horizontalStack=0;resizeParent=1;resizeLast=0;collapsible=1;marginBottom=0;swimlaneFillColor=#ffffff;rounded=0;shadow=0;comic=0;labelBackgroundColor=none;strokeWidth=1;fillColor=none;fontFamily=Verdana;fontSize=12" vertex="1" parent="1">
          <mxGeometry x="1210" y="862" width="250" height="210" as="geometry">
            <mxRectangle x="440" y="73" width="90" height="30" as="alternateBounds" />
          </mxGeometry>
        </mxCell>
        <mxCell id="z39Naz20EpBCcd1Hh88v-260" value="TSubclassOf&amp;lt;AController&amp;gt;AIControllerClass" style="text;html=1;strokeColor=none;fillColor=none;align=left;verticalAlign=top;spacingLeft=4;spacingRight=4;whiteSpace=wrap;overflow=hidden;rotatable=0;points=[[0,0.5],[1,0.5]];portConstraint=eastwest;" vertex="1" parent="z39Naz20EpBCcd1Hh88v-259">
          <mxGeometry y="26" width="250" height="26" as="geometry" />
        </mxCell>
        <mxCell id="z39Naz20EpBCcd1Hh88v-270" value="uint32 bInputEnabled=1" style="text;html=1;strokeColor=none;fillColor=none;align=left;verticalAlign=top;spacingLeft=4;spacingRight=4;whiteSpace=wrap;overflow=hidden;rotatable=0;points=[[0,0.5],[1,0.5]];portConstraint=eastwest;" vertex="1" parent="z39Naz20EpBCcd1Hh88v-259">
          <mxGeometry y="52" width="250" height="26" as="geometry" />
        </mxCell>
        <mxCell id="z39Naz20EpBCcd1Hh88v-271" value="FVector ControlInputVector" style="text;html=1;strokeColor=none;fillColor=none;align=left;verticalAlign=top;spacingLeft=4;spacingRight=4;whiteSpace=wrap;overflow=hidden;rotatable=0;points=[[0,0.5],[1,0.5]];portConstraint=eastwest;" vertex="1" parent="z39Naz20EpBCcd1Hh88v-259">
          <mxGeometry y="78" width="250" height="26" as="geometry" />
        </mxCell>
        <mxCell id="z39Naz20EpBCcd1Hh88v-272" value="APlayerState*PlayerState" style="text;html=1;strokeColor=none;fillColor=none;align=left;verticalAlign=top;spacingLeft=4;spacingRight=4;whiteSpace=wrap;overflow=hidden;rotatable=0;points=[[0,0.5],[1,0.5]];portConstraint=eastwest;" vertex="1" parent="z39Naz20EpBCcd1Hh88v-259">
          <mxGeometry y="104" width="250" height="26" as="geometry" />
        </mxCell>
        <mxCell id="z39Naz20EpBCcd1Hh88v-273" value="AController*Controller" style="text;html=1;strokeColor=none;fillColor=none;align=left;verticalAlign=top;spacingLeft=4;spacingRight=4;whiteSpace=wrap;overflow=hidden;rotatable=0;points=[[0,0.5],[1,0.5]];portConstraint=eastwest;" vertex="1" parent="z39Naz20EpBCcd1Hh88v-259">
          <mxGeometry y="130" width="250" height="26" as="geometry" />
        </mxCell>
        <mxCell id="z39Naz20EpBCcd1Hh88v-266" value="" style="line;html=1;strokeWidth=1;fillColor=none;align=left;verticalAlign=middle;spacingTop=-1;spacingLeft=3;spacingRight=3;rotatable=0;labelPosition=right;points=[];portConstraint=eastwest;" vertex="1" parent="z39Naz20EpBCcd1Hh88v-259">
          <mxGeometry y="156" width="250" height="8" as="geometry" />
        </mxCell>
        <mxCell id="z39Naz20EpBCcd1Hh88v-267" value="void Tick(float DeltaSeconds)" style="text;html=1;strokeColor=none;fillColor=none;align=left;verticalAlign=top;spacingLeft=4;spacingRight=4;whiteSpace=wrap;overflow=hidden;rotatable=0;points=[[0,0.5],[1,0.5]];portConstraint=eastwest;" vertex="1" parent="z39Naz20EpBCcd1Hh88v-259">
          <mxGeometry y="164" width="250" height="26" as="geometry" />
        </mxCell>
        <mxCell id="z39Naz20EpBCcd1Hh88v-302" value="" style="edgeStyle=none;rounded=0;orthogonalLoop=1;jettySize=auto;html=1;" edge="1" parent="1" source="z39Naz20EpBCcd1Hh88v-274" target="z39Naz20EpBCcd1Hh88v-297">
          <mxGeometry relative="1" as="geometry" />
        </mxCell>
        <mxCell id="z39Naz20EpBCcd1Hh88v-303" value="派生" style="edgeLabel;html=1;align=center;verticalAlign=middle;resizable=0;points=[];" vertex="1" connectable="0" parent="z39Naz20EpBCcd1Hh88v-302">
          <mxGeometry x="-0.5494" y="1" relative="1" as="geometry">
            <mxPoint x="-1" y="18" as="offset" />
          </mxGeometry>
        </mxCell>
        <mxCell id="z39Naz20EpBCcd1Hh88v-274" value="ADefaultPawn" style="swimlane;html=1;fontStyle=1;align=center;verticalAlign=top;childLayout=stackLayout;horizontal=1;startSize=26;horizontalStack=0;resizeParent=1;resizeLast=0;collapsible=1;marginBottom=0;swimlaneFillColor=#ffffff;rounded=0;shadow=0;comic=0;labelBackgroundColor=none;strokeWidth=1;fillColor=none;fontFamily=Verdana;fontSize=12" vertex="1" parent="1">
          <mxGeometry x="1360" y="1150" width="300" height="130" as="geometry">
            <mxRectangle x="440" y="73" width="90" height="30" as="alternateBounds" />
          </mxGeometry>
        </mxCell>
        <mxCell id="z39Naz20EpBCcd1Hh88v-279" value="USphereComponent*CollisionComponent" style="text;html=1;strokeColor=none;fillColor=none;align=left;verticalAlign=top;spacingLeft=4;spacingRight=4;whiteSpace=wrap;overflow=hidden;rotatable=0;points=[[0,0.5],[1,0.5]];portConstraint=eastwest;" vertex="1" parent="z39Naz20EpBCcd1Hh88v-274">
          <mxGeometry y="26" width="300" height="26" as="geometry" />
        </mxCell>
        <mxCell id="z39Naz20EpBCcd1Hh88v-283" value="UPawnMovementComponent*MovementComponent" style="text;html=1;strokeColor=none;fillColor=none;align=left;verticalAlign=top;spacingLeft=4;spacingRight=4;whiteSpace=wrap;overflow=hidden;rotatable=0;points=[[0,0.5],[1,0.5]];portConstraint=eastwest;" vertex="1" parent="z39Naz20EpBCcd1Hh88v-274">
          <mxGeometry y="52" width="300" height="26" as="geometry" />
        </mxCell>
        <mxCell id="z39Naz20EpBCcd1Hh88v-280" value="" style="line;html=1;strokeWidth=1;fillColor=none;align=left;verticalAlign=middle;spacingTop=-1;spacingLeft=3;spacingRight=3;rotatable=0;labelPosition=right;points=[];portConstraint=eastwest;" vertex="1" parent="z39Naz20EpBCcd1Hh88v-274">
          <mxGeometry y="78" width="300" height="8" as="geometry" />
        </mxCell>
        <mxCell id="z39Naz20EpBCcd1Hh88v-281" value="void Tick(float DeltaSeconds)" style="text;html=1;strokeColor=none;fillColor=none;align=left;verticalAlign=top;spacingLeft=4;spacingRight=4;whiteSpace=wrap;overflow=hidden;rotatable=0;points=[[0,0.5],[1,0.5]];portConstraint=eastwest;" vertex="1" parent="z39Naz20EpBCcd1Hh88v-274">
          <mxGeometry y="86" width="300" height="26" as="geometry" />
        </mxCell>
        <mxCell id="z39Naz20EpBCcd1Hh88v-286" value="ACharacter" style="swimlane;html=1;fontStyle=1;align=center;verticalAlign=top;childLayout=stackLayout;horizontal=1;startSize=26;horizontalStack=0;resizeParent=1;resizeLast=0;collapsible=1;marginBottom=0;swimlaneFillColor=#ffffff;rounded=0;shadow=0;comic=0;labelBackgroundColor=none;strokeWidth=1;fillColor=none;fontFamily=Verdana;fontSize=12" vertex="1" parent="1">
          <mxGeometry x="1010" y="1130" width="310" height="150" as="geometry">
            <mxRectangle x="440" y="73" width="90" height="30" as="alternateBounds" />
          </mxGeometry>
        </mxCell>
        <mxCell id="z39Naz20EpBCcd1Hh88v-287" value="USkeletalMeshComponent*Mesh" style="text;html=1;strokeColor=none;fillColor=none;align=left;verticalAlign=top;spacingLeft=4;spacingRight=4;whiteSpace=wrap;overflow=hidden;rotatable=0;points=[[0,0.5],[1,0.5]];portConstraint=eastwest;" vertex="1" parent="z39Naz20EpBCcd1Hh88v-286">
          <mxGeometry y="26" width="310" height="26" as="geometry" />
        </mxCell>
        <mxCell id="z39Naz20EpBCcd1Hh88v-295" value="UCharacterMovementComponent*CharacterMovement" style="text;html=1;strokeColor=none;fillColor=none;align=left;verticalAlign=top;spacingLeft=4;spacingRight=4;whiteSpace=wrap;overflow=hidden;rotatable=0;points=[[0,0.5],[1,0.5]];portConstraint=eastwest;" vertex="1" parent="z39Naz20EpBCcd1Hh88v-286">
          <mxGeometry y="52" width="310" height="26" as="geometry" />
        </mxCell>
        <mxCell id="z39Naz20EpBCcd1Hh88v-296" value="UCapsuleComponent*CapsuleComponent" style="text;html=1;strokeColor=none;fillColor=none;align=left;verticalAlign=top;spacingLeft=4;spacingRight=4;whiteSpace=wrap;overflow=hidden;rotatable=0;points=[[0,0.5],[1,0.5]];portConstraint=eastwest;" vertex="1" parent="z39Naz20EpBCcd1Hh88v-286">
          <mxGeometry y="78" width="310" height="26" as="geometry" />
        </mxCell>
        <mxCell id="z39Naz20EpBCcd1Hh88v-292" value="" style="line;html=1;strokeWidth=1;fillColor=none;align=left;verticalAlign=middle;spacingTop=-1;spacingLeft=3;spacingRight=3;rotatable=0;labelPosition=right;points=[];portConstraint=eastwest;" vertex="1" parent="z39Naz20EpBCcd1Hh88v-286">
          <mxGeometry y="104" width="310" height="8" as="geometry" />
        </mxCell>
        <mxCell id="z39Naz20EpBCcd1Hh88v-293" value="void Tick(float DeltaSeconds)" style="text;html=1;strokeColor=none;fillColor=none;align=left;verticalAlign=top;spacingLeft=4;spacingRight=4;whiteSpace=wrap;overflow=hidden;rotatable=0;points=[[0,0.5],[1,0.5]];portConstraint=eastwest;" vertex="1" parent="z39Naz20EpBCcd1Hh88v-286">
          <mxGeometry y="112" width="310" height="26" as="geometry" />
        </mxCell>
        <mxCell id="z39Naz20EpBCcd1Hh88v-297" value="ASpectatorPawn(观战用)" style="swimlane;html=1;fontStyle=1;align=center;verticalAlign=top;childLayout=stackLayout;horizontal=1;startSize=26;horizontalStack=0;resizeParent=1;resizeLast=0;collapsible=1;marginBottom=0;swimlaneFillColor=#ffffff;rounded=0;shadow=0;comic=0;labelBackgroundColor=none;strokeWidth=1;fillColor=none;fontFamily=Verdana;fontSize=12" vertex="1" parent="1">
          <mxGeometry x="1470" y="1370" width="200" height="160" as="geometry">
            <mxRectangle x="440" y="73" width="90" height="30" as="alternateBounds" />
          </mxGeometry>
        </mxCell>
        <mxCell id="z39Naz20EpBCcd1Hh88v-299" value="USpectatorMovementComponent&lt;br&gt;不带重力漫游" style="text;html=1;strokeColor=none;fillColor=none;align=left;verticalAlign=top;spacingLeft=4;spacingRight=4;whiteSpace=wrap;overflow=hidden;rotatable=0;points=[[0,0.5],[1,0.5]];portConstraint=eastwest;" vertex="1" parent="z39Naz20EpBCcd1Hh88v-297">
          <mxGeometry y="26" width="200" height="44" as="geometry" />
        </mxCell>
        <mxCell id="z39Naz20EpBCcd1Hh88v-300" value="" style="line;html=1;strokeWidth=1;fillColor=none;align=left;verticalAlign=middle;spacingTop=-1;spacingLeft=3;spacingRight=3;rotatable=0;labelPosition=right;points=[];portConstraint=eastwest;" vertex="1" parent="z39Naz20EpBCcd1Hh88v-297">
          <mxGeometry y="70" width="200" height="8" as="geometry" />
        </mxCell>
        <mxCell id="z39Naz20EpBCcd1Hh88v-301" value="void Tick(float DeltaSeconds)" style="text;html=1;strokeColor=none;fillColor=none;align=left;verticalAlign=top;spacingLeft=4;spacingRight=4;whiteSpace=wrap;overflow=hidden;rotatable=0;points=[[0,0.5],[1,0.5]];portConstraint=eastwest;" vertex="1" parent="z39Naz20EpBCcd1Hh88v-297">
          <mxGeometry y="78" width="200" height="26" as="geometry" />
        </mxCell>
        <mxCell id="z39Naz20EpBCcd1Hh88v-360" value="" style="edgeStyle=none;rounded=0;orthogonalLoop=1;jettySize=auto;html=1;" edge="1" parent="1" source="z39Naz20EpBCcd1Hh88v-307" target="z39Naz20EpBCcd1Hh88v-346">
          <mxGeometry relative="1" as="geometry" />
        </mxCell>
        <mxCell id="z39Naz20EpBCcd1Hh88v-366" value="派生" style="edgeLabel;html=1;align=center;verticalAlign=middle;resizable=0;points=[];" vertex="1" connectable="0" parent="z39Naz20EpBCcd1Hh88v-360">
          <mxGeometry x="0.2078" y="2" relative="1" as="geometry">
            <mxPoint y="-10" as="offset" />
          </mxGeometry>
        </mxCell>
        <mxCell id="z39Naz20EpBCcd1Hh88v-380" style="edgeStyle=none;rounded=0;orthogonalLoop=1;jettySize=auto;html=1;" edge="1" parent="1" source="z39Naz20EpBCcd1Hh88v-307" target="z39Naz20EpBCcd1Hh88v-369">
          <mxGeometry relative="1" as="geometry" />
        </mxCell>
        <mxCell id="z39Naz20EpBCcd1Hh88v-387" value="派生" style="edgeLabel;html=1;align=center;verticalAlign=middle;resizable=0;points=[];" vertex="1" connectable="0" parent="z39Naz20EpBCcd1Hh88v-380">
          <mxGeometry x="-0.421" relative="1" as="geometry">
            <mxPoint x="8" y="15" as="offset" />
          </mxGeometry>
        </mxCell>
        <mxCell id="z39Naz20EpBCcd1Hh88v-388" style="edgeStyle=none;rounded=0;orthogonalLoop=1;jettySize=auto;html=1;" edge="1" parent="1" source="z39Naz20EpBCcd1Hh88v-307" target="z39Naz20EpBCcd1Hh88v-259">
          <mxGeometry relative="1" as="geometry" />
        </mxCell>
        <mxCell id="z39Naz20EpBCcd1Hh88v-389" value="控制" style="edgeLabel;html=1;align=center;verticalAlign=middle;resizable=0;points=[];" vertex="1" connectable="0" parent="z39Naz20EpBCcd1Hh88v-388">
          <mxGeometry x="0.4554" y="1" relative="1" as="geometry">
            <mxPoint x="-46" y="2" as="offset" />
          </mxGeometry>
        </mxCell>
        <mxCell id="z39Naz20EpBCcd1Hh88v-307" value="AController" style="swimlane;html=1;fontStyle=1;align=center;verticalAlign=top;childLayout=stackLayout;horizontal=1;startSize=26;horizontalStack=0;resizeParent=1;resizeLast=0;collapsible=1;marginBottom=0;swimlaneFillColor=#ffffff;rounded=0;shadow=0;comic=0;labelBackgroundColor=none;strokeWidth=1;fillColor=none;fontFamily=Verdana;fontSize=12" vertex="1" parent="1">
          <mxGeometry x="690" y="802" width="295" height="348" as="geometry">
            <mxRectangle x="440" y="73" width="90" height="30" as="alternateBounds" />
          </mxGeometry>
        </mxCell>
        <mxCell id="z39Naz20EpBCcd1Hh88v-312" value="APlayerState*PlayerState" style="text;html=1;strokeColor=none;fillColor=none;align=left;verticalAlign=top;spacingLeft=4;spacingRight=4;whiteSpace=wrap;overflow=hidden;rotatable=0;points=[[0,0.5],[1,0.5]];portConstraint=eastwest;" vertex="1" parent="z39Naz20EpBCcd1Hh88v-307">
          <mxGeometry y="26" width="295" height="24" as="geometry" />
        </mxCell>
        <mxCell id="z39Naz20EpBCcd1Hh88v-318" value="uint32 bAttachToPawn=1" style="text;html=1;strokeColor=none;fillColor=none;align=left;verticalAlign=top;spacingLeft=4;spacingRight=4;whiteSpace=wrap;overflow=hidden;rotatable=0;points=[[0,0.5],[1,0.5]];portConstraint=eastwest;" vertex="1" parent="z39Naz20EpBCcd1Hh88v-307">
          <mxGeometry y="50" width="295" height="24" as="geometry" />
        </mxCell>
        <mxCell id="z39Naz20EpBCcd1Hh88v-319" value="FRotator ControlRotation" style="text;html=1;strokeColor=none;fillColor=none;align=left;verticalAlign=top;spacingLeft=4;spacingRight=4;whiteSpace=wrap;overflow=hidden;rotatable=0;points=[[0,0.5],[1,0.5]];portConstraint=eastwest;" vertex="1" parent="z39Naz20EpBCcd1Hh88v-307">
          <mxGeometry y="74" width="295" height="24" as="geometry" />
        </mxCell>
        <mxCell id="z39Naz20EpBCcd1Hh88v-320" value="FName StateName切换自身状态：&lt;br&gt;&lt;span style=&quot;white-space: pre;&quot;&gt;	&lt;/span&gt;Playing运行、Spectating观察、Inactive非激活" style="text;html=1;strokeColor=none;fillColor=none;align=left;verticalAlign=top;spacingLeft=4;spacingRight=4;whiteSpace=wrap;overflow=hidden;rotatable=0;points=[[0,0.5],[1,0.5]];portConstraint=eastwest;" vertex="1" parent="z39Naz20EpBCcd1Hh88v-307">
          <mxGeometry y="98" width="295" height="42" as="geometry" />
        </mxCell>
        <mxCell id="z39Naz20EpBCcd1Hh88v-321" value="TWeakObjectPtr&amp;lt;class AActor&amp;gt;StartSpot" style="text;html=1;strokeColor=none;fillColor=none;align=left;verticalAlign=top;spacingLeft=4;spacingRight=4;whiteSpace=wrap;overflow=hidden;rotatable=0;points=[[0,0.5],[1,0.5]];portConstraint=eastwest;" vertex="1" parent="z39Naz20EpBCcd1Hh88v-307">
          <mxGeometry y="140" width="295" height="24" as="geometry" />
        </mxCell>
        <mxCell id="z39Naz20EpBCcd1Hh88v-322" value="APawn*Pawn" style="text;html=1;strokeColor=none;fillColor=none;align=left;verticalAlign=top;spacingLeft=4;spacingRight=4;whiteSpace=wrap;overflow=hidden;rotatable=0;points=[[0,0.5],[1,0.5]];portConstraint=eastwest;" vertex="1" parent="z39Naz20EpBCcd1Hh88v-307">
          <mxGeometry y="164" width="295" height="24" as="geometry" />
        </mxCell>
        <mxCell id="z39Naz20EpBCcd1Hh88v-323" value="ACharacter*Character" style="text;html=1;strokeColor=none;fillColor=none;align=left;verticalAlign=top;spacingLeft=4;spacingRight=4;whiteSpace=wrap;overflow=hidden;rotatable=0;points=[[0,0.5],[1,0.5]];portConstraint=eastwest;" vertex="1" parent="z39Naz20EpBCcd1Hh88v-307">
          <mxGeometry y="188" width="295" height="24" as="geometry" />
        </mxCell>
        <mxCell id="z39Naz20EpBCcd1Hh88v-324" value="USceneComponent*TransformComponent" style="text;html=1;strokeColor=none;fillColor=none;align=left;verticalAlign=top;spacingLeft=4;spacingRight=4;whiteSpace=wrap;overflow=hidden;rotatable=0;points=[[0,0.5],[1,0.5]];portConstraint=eastwest;" vertex="1" parent="z39Naz20EpBCcd1Hh88v-307">
          <mxGeometry y="212" width="295" height="24" as="geometry" />
        </mxCell>
        <mxCell id="z39Naz20EpBCcd1Hh88v-315" value="" style="line;html=1;strokeWidth=1;fillColor=none;align=left;verticalAlign=middle;spacingTop=-1;spacingLeft=3;spacingRight=3;rotatable=0;labelPosition=right;points=[];portConstraint=eastwest;" vertex="1" parent="z39Naz20EpBCcd1Hh88v-307">
          <mxGeometry y="236" width="295" height="8" as="geometry" />
        </mxCell>
        <mxCell id="z39Naz20EpBCcd1Hh88v-316" value="void Possess(APawn*InPawn)关联Pawn的能力" style="text;html=1;strokeColor=none;fillColor=none;align=left;verticalAlign=top;spacingLeft=4;spacingRight=4;whiteSpace=wrap;overflow=hidden;rotatable=0;points=[[0,0.5],[1,0.5]];portConstraint=eastwest;" vertex="1" parent="z39Naz20EpBCcd1Hh88v-307">
          <mxGeometry y="244" width="295" height="26" as="geometry" />
        </mxCell>
        <mxCell id="z39Naz20EpBCcd1Hh88v-327" value="void UnPossess()" style="text;html=1;strokeColor=none;fillColor=none;align=left;verticalAlign=top;spacingLeft=4;spacingRight=4;whiteSpace=wrap;overflow=hidden;rotatable=0;points=[[0,0.5],[1,0.5]];portConstraint=eastwest;" vertex="1" parent="z39Naz20EpBCcd1Hh88v-307">
          <mxGeometry y="270" width="295" height="26" as="geometry" />
        </mxCell>
        <mxCell id="z39Naz20EpBCcd1Hh88v-330" value="void ChangeState(FName NewState)" style="text;html=1;strokeColor=none;fillColor=none;align=left;verticalAlign=top;spacingLeft=4;spacingRight=4;whiteSpace=wrap;overflow=hidden;rotatable=0;points=[[0,0.5],[1,0.5]];portConstraint=eastwest;" vertex="1" parent="z39Naz20EpBCcd1Hh88v-307">
          <mxGeometry y="296" width="295" height="26" as="geometry" />
        </mxCell>
        <mxCell id="z39Naz20EpBCcd1Hh88v-331" value="void InitPlayerState" style="text;html=1;strokeColor=none;fillColor=none;align=left;verticalAlign=top;spacingLeft=4;spacingRight=4;whiteSpace=wrap;overflow=hidden;rotatable=0;points=[[0,0.5],[1,0.5]];portConstraint=eastwest;" vertex="1" parent="z39Naz20EpBCcd1Hh88v-307">
          <mxGeometry y="322" width="295" height="26" as="geometry" />
        </mxCell>
        <mxCell id="z39Naz20EpBCcd1Hh88v-338" style="edgeStyle=none;rounded=0;orthogonalLoop=1;jettySize=auto;html=1;" edge="1" parent="1" source="z39Naz20EpBCcd1Hh88v-332" target="z39Naz20EpBCcd1Hh88v-307">
          <mxGeometry relative="1" as="geometry" />
        </mxCell>
        <mxCell id="z39Naz20EpBCcd1Hh88v-341" value="组成" style="edgeLabel;html=1;align=center;verticalAlign=middle;resizable=0;points=[];" vertex="1" connectable="0" parent="z39Naz20EpBCcd1Hh88v-338">
          <mxGeometry x="0.3091" y="3" relative="1" as="geometry">
            <mxPoint x="-8" y="6" as="offset" />
          </mxGeometry>
        </mxCell>
        <mxCell id="z39Naz20EpBCcd1Hh88v-425" style="edgeStyle=none;rounded=0;orthogonalLoop=1;jettySize=auto;html=1;" edge="1" parent="1" source="z39Naz20EpBCcd1Hh88v-332" target="z39Naz20EpBCcd1Hh88v-418">
          <mxGeometry relative="1" as="geometry" />
        </mxCell>
        <mxCell id="z39Naz20EpBCcd1Hh88v-426" value="组成" style="edgeLabel;html=1;align=center;verticalAlign=middle;resizable=0;points=[];" vertex="1" connectable="0" parent="z39Naz20EpBCcd1Hh88v-425">
          <mxGeometry x="-0.3175" y="-3" relative="1" as="geometry">
            <mxPoint x="-6" y="3" as="offset" />
          </mxGeometry>
        </mxCell>
        <mxCell id="z39Naz20EpBCcd1Hh88v-332" value="APlayerState" style="swimlane;html=1;fontStyle=1;align=center;verticalAlign=top;childLayout=stackLayout;horizontal=1;startSize=26;horizontalStack=0;resizeParent=1;resizeLast=0;collapsible=1;marginBottom=0;swimlaneFillColor=#ffffff;rounded=0;shadow=0;comic=0;labelBackgroundColor=none;strokeWidth=1;fillColor=none;fontFamily=Verdana;fontSize=12" vertex="1" parent="1">
          <mxGeometry x="370" y="1090" width="245" height="156" as="geometry">
            <mxRectangle x="440" y="73" width="90" height="30" as="alternateBounds" />
          </mxGeometry>
        </mxCell>
        <mxCell id="z39Naz20EpBCcd1Hh88v-333" value="Controller的记忆，保存游戏状态&lt;br&gt;存放当前关卡的数据，跨关卡的放instance" style="text;html=1;strokeColor=none;fillColor=none;align=left;verticalAlign=top;spacingLeft=4;spacingRight=4;whiteSpace=wrap;overflow=hidden;rotatable=0;points=[[0,0.5],[1,0.5]];portConstraint=eastwest;" vertex="1" parent="z39Naz20EpBCcd1Hh88v-332">
          <mxGeometry y="26" width="245" height="34" as="geometry" />
        </mxCell>
        <mxCell id="z39Naz20EpBCcd1Hh88v-344" value="float Score" style="text;html=1;strokeColor=none;fillColor=none;align=left;verticalAlign=top;spacingLeft=4;spacingRight=4;whiteSpace=wrap;overflow=hidden;rotatable=0;points=[[0,0.5],[1,0.5]];portConstraint=eastwest;" vertex="1" parent="z39Naz20EpBCcd1Hh88v-332">
          <mxGeometry y="60" width="245" height="26" as="geometry" />
        </mxCell>
        <mxCell id="z39Naz20EpBCcd1Hh88v-345" value="int32 PlayerId" style="text;html=1;strokeColor=none;fillColor=none;align=left;verticalAlign=top;spacingLeft=4;spacingRight=4;whiteSpace=wrap;overflow=hidden;rotatable=0;points=[[0,0.5],[1,0.5]];portConstraint=eastwest;" vertex="1" parent="z39Naz20EpBCcd1Hh88v-332">
          <mxGeometry y="86" width="245" height="26" as="geometry" />
        </mxCell>
        <mxCell id="z39Naz20EpBCcd1Hh88v-334" value="" style="line;html=1;strokeWidth=1;fillColor=none;align=left;verticalAlign=middle;spacingTop=-1;spacingLeft=3;spacingRight=3;rotatable=0;labelPosition=right;points=[];portConstraint=eastwest;" vertex="1" parent="z39Naz20EpBCcd1Hh88v-332">
          <mxGeometry y="112" width="245" height="8" as="geometry" />
        </mxCell>
        <mxCell id="z39Naz20EpBCcd1Hh88v-335" value="func" style="text;html=1;strokeColor=none;fillColor=none;align=left;verticalAlign=top;spacingLeft=4;spacingRight=4;whiteSpace=wrap;overflow=hidden;rotatable=0;points=[[0,0.5],[1,0.5]];portConstraint=eastwest;" vertex="1" parent="z39Naz20EpBCcd1Hh88v-332">
          <mxGeometry y="120" width="245" height="26" as="geometry" />
        </mxCell>
        <mxCell id="z39Naz20EpBCcd1Hh88v-340" style="edgeStyle=none;rounded=0;orthogonalLoop=1;jettySize=auto;html=1;exitX=0.75;exitY=0;exitDx=0;exitDy=0;" edge="1" parent="1" source="z39Naz20EpBCcd1Hh88v-332" target="z39Naz20EpBCcd1Hh88v-332">
          <mxGeometry relative="1" as="geometry" />
        </mxCell>
        <mxCell id="z39Naz20EpBCcd1Hh88v-346" value="APlayerController" style="swimlane;html=1;fontStyle=1;align=center;verticalAlign=top;childLayout=stackLayout;horizontal=1;startSize=26;horizontalStack=0;resizeParent=1;resizeLast=0;collapsible=1;marginBottom=0;swimlaneFillColor=#ffffff;rounded=0;shadow=0;comic=0;labelBackgroundColor=none;strokeWidth=1;fillColor=none;fontFamily=Verdana;fontSize=12" vertex="1" parent="1">
          <mxGeometry x="430" y="1290" width="280" height="272" as="geometry">
            <mxRectangle x="440" y="73" width="90" height="30" as="alternateBounds" />
          </mxGeometry>
        </mxCell>
        <mxCell id="z39Naz20EpBCcd1Hh88v-354" value="UPlayer*Player" style="text;html=1;strokeColor=none;fillColor=none;align=left;verticalAlign=top;spacingLeft=4;spacingRight=4;whiteSpace=wrap;overflow=hidden;rotatable=0;points=[[0,0.5],[1,0.5]];portConstraint=eastwest;" vertex="1" parent="z39Naz20EpBCcd1Hh88v-346">
          <mxGeometry y="26" width="280" height="24" as="geometry" />
        </mxCell>
        <mxCell id="z39Naz20EpBCcd1Hh88v-361" value="AHUD*MyHUD" style="text;html=1;strokeColor=none;fillColor=none;align=left;verticalAlign=top;spacingLeft=4;spacingRight=4;whiteSpace=wrap;overflow=hidden;rotatable=0;points=[[0,0.5],[1,0.5]];portConstraint=eastwest;" vertex="1" parent="z39Naz20EpBCcd1Hh88v-346">
          <mxGeometry y="50" width="280" height="24" as="geometry" />
        </mxCell>
        <mxCell id="z39Naz20EpBCcd1Hh88v-362" value="APlayerCameraManager*PlayerCameraManager" style="text;html=1;strokeColor=none;fillColor=none;align=left;verticalAlign=top;spacingLeft=4;spacingRight=4;whiteSpace=wrap;overflow=hidden;rotatable=0;points=[[0,0.5],[1,0.5]];portConstraint=eastwest;" vertex="1" parent="z39Naz20EpBCcd1Hh88v-346">
          <mxGeometry y="74" width="280" height="24" as="geometry" />
        </mxCell>
        <mxCell id="z39Naz20EpBCcd1Hh88v-363" value="UPlayerInput*PlayerInput" style="text;html=1;strokeColor=none;fillColor=none;align=left;verticalAlign=top;spacingLeft=4;spacingRight=4;whiteSpace=wrap;overflow=hidden;rotatable=0;points=[[0,0.5],[1,0.5]];portConstraint=eastwest;" vertex="1" parent="z39Naz20EpBCcd1Hh88v-346">
          <mxGeometry y="98" width="280" height="24" as="geometry" />
        </mxCell>
        <mxCell id="z39Naz20EpBCcd1Hh88v-364" value="APawn*AcknowledgedPawn" style="text;html=1;strokeColor=none;fillColor=none;align=left;verticalAlign=top;spacingLeft=4;spacingRight=4;whiteSpace=wrap;overflow=hidden;rotatable=0;points=[[0,0.5],[1,0.5]];portConstraint=eastwest;" vertex="1" parent="z39Naz20EpBCcd1Hh88v-346">
          <mxGeometry y="122" width="280" height="24" as="geometry" />
        </mxCell>
        <mxCell id="z39Naz20EpBCcd1Hh88v-365" value="ASpecatorPawn*SpecatorPawn" style="text;html=1;strokeColor=none;fillColor=none;align=left;verticalAlign=top;spacingLeft=4;spacingRight=4;whiteSpace=wrap;overflow=hidden;rotatable=0;points=[[0,0.5],[1,0.5]];portConstraint=eastwest;" vertex="1" parent="z39Naz20EpBCcd1Hh88v-346">
          <mxGeometry y="146" width="280" height="24" as="geometry" />
        </mxCell>
        <mxCell id="z39Naz20EpBCcd1Hh88v-355" value="" style="line;html=1;strokeWidth=1;fillColor=none;align=left;verticalAlign=middle;spacingTop=-1;spacingLeft=3;spacingRight=3;rotatable=0;labelPosition=right;points=[];portConstraint=eastwest;" vertex="1" parent="z39Naz20EpBCcd1Hh88v-346">
          <mxGeometry y="170" width="280" height="8" as="geometry" />
        </mxCell>
        <mxCell id="z39Naz20EpBCcd1Hh88v-359" value="void SetPlayer(UPlayer*InPlayer)" style="text;html=1;strokeColor=none;fillColor=none;align=left;verticalAlign=top;spacingLeft=4;spacingRight=4;whiteSpace=wrap;overflow=hidden;rotatable=0;points=[[0,0.5],[1,0.5]];portConstraint=eastwest;" vertex="1" parent="z39Naz20EpBCcd1Hh88v-346">
          <mxGeometry y="178" width="280" height="22" as="geometry" />
        </mxCell>
        <mxCell id="z39Naz20EpBCcd1Hh88v-367" value="本类模块：Camera的管理、Input系统、UPlayer关联、HUD显示、Level的切换、Voice音频" style="text;html=1;strokeColor=none;fillColor=none;align=left;verticalAlign=top;spacingLeft=4;spacingRight=4;whiteSpace=wrap;overflow=hidden;rotatable=0;points=[[0,0.5],[1,0.5]];portConstraint=eastwest;" vertex="1" parent="z39Naz20EpBCcd1Hh88v-346">
          <mxGeometry y="200" width="280" height="36" as="geometry" />
        </mxCell>
        <mxCell id="z39Naz20EpBCcd1Hh88v-368" value="Player:PlayerController:PlayerState=1:1:1" style="text;html=1;strokeColor=none;fillColor=none;align=left;verticalAlign=top;spacingLeft=4;spacingRight=4;whiteSpace=wrap;overflow=hidden;rotatable=0;points=[[0,0.5],[1,0.5]];portConstraint=eastwest;" vertex="1" parent="z39Naz20EpBCcd1Hh88v-346">
          <mxGeometry y="236" width="280" height="24" as="geometry" />
        </mxCell>
        <mxCell id="z39Naz20EpBCcd1Hh88v-369" value="AAIController" style="swimlane;html=1;fontStyle=1;align=center;verticalAlign=top;childLayout=stackLayout;horizontal=1;startSize=26;horizontalStack=0;resizeParent=1;resizeLast=0;collapsible=1;marginBottom=0;swimlaneFillColor=#ffffff;rounded=0;shadow=0;comic=0;labelBackgroundColor=none;strokeWidth=1;fillColor=none;fontFamily=Verdana;fontSize=12" vertex="1" parent="1">
          <mxGeometry x="750" y="1312" width="560" height="250" as="geometry">
            <mxRectangle x="440" y="73" width="90" height="30" as="alternateBounds" />
          </mxGeometry>
        </mxCell>
        <mxCell id="z39Naz20EpBCcd1Hh88v-375" value="UBrainComponent&amp;amp;BrainComponent" style="text;html=1;strokeColor=none;fillColor=none;align=left;verticalAlign=top;spacingLeft=4;spacingRight=4;whiteSpace=wrap;overflow=hidden;rotatable=0;points=[[0,0.5],[1,0.5]];portConstraint=eastwest;" vertex="1" parent="z39Naz20EpBCcd1Hh88v-369">
          <mxGeometry y="26" width="560" height="24" as="geometry" />
        </mxCell>
        <mxCell id="z39Naz20EpBCcd1Hh88v-381" value="UAIPerceptionComponent*PerceptionComponent" style="text;html=1;strokeColor=none;fillColor=none;align=left;verticalAlign=top;spacingLeft=4;spacingRight=4;whiteSpace=wrap;overflow=hidden;rotatable=0;points=[[0,0.5],[1,0.5]];portConstraint=eastwest;" vertex="1" parent="z39Naz20EpBCcd1Hh88v-369">
          <mxGeometry y="50" width="560" height="24" as="geometry" />
        </mxCell>
        <mxCell id="z39Naz20EpBCcd1Hh88v-382" value="UBlackboardComponent*Blackboard" style="text;html=1;strokeColor=none;fillColor=none;align=left;verticalAlign=top;spacingLeft=4;spacingRight=4;whiteSpace=wrap;overflow=hidden;rotatable=0;points=[[0,0.5],[1,0.5]];portConstraint=eastwest;" vertex="1" parent="z39Naz20EpBCcd1Hh88v-369">
          <mxGeometry y="74" width="560" height="24" as="geometry" />
        </mxCell>
        <mxCell id="z39Naz20EpBCcd1Hh88v-376" value="" style="line;html=1;strokeWidth=1;fillColor=none;align=left;verticalAlign=middle;spacingTop=-1;spacingLeft=3;spacingRight=3;rotatable=0;labelPosition=right;points=[];portConstraint=eastwest;" vertex="1" parent="z39Naz20EpBCcd1Hh88v-369">
          <mxGeometry y="98" width="560" height="8" as="geometry" />
        </mxCell>
        <mxCell id="z39Naz20EpBCcd1Hh88v-379" value="MoveToActor(AActor*Goal,...)" style="text;html=1;strokeColor=none;fillColor=none;align=left;verticalAlign=top;spacingLeft=4;spacingRight=4;whiteSpace=wrap;overflow=hidden;rotatable=0;points=[[0,0.5],[1,0.5]];portConstraint=eastwest;" vertex="1" parent="z39Naz20EpBCcd1Hh88v-369">
          <mxGeometry y="106" width="560" height="24" as="geometry" />
        </mxCell>
        <mxCell id="z39Naz20EpBCcd1Hh88v-383" value="MoveToLocation(const FVector&amp;amp;Dest,...)" style="text;html=1;strokeColor=none;fillColor=none;align=left;verticalAlign=top;spacingLeft=4;spacingRight=4;whiteSpace=wrap;overflow=hidden;rotatable=0;points=[[0,0.5],[1,0.5]];portConstraint=eastwest;" vertex="1" parent="z39Naz20EpBCcd1Hh88v-369">
          <mxGeometry y="130" width="560" height="24" as="geometry" />
        </mxCell>
        <mxCell id="z39Naz20EpBCcd1Hh88v-384" value="bool RunBehaviorTree(UbehaviorTree*BTAsset)" style="text;html=1;strokeColor=none;fillColor=none;align=left;verticalAlign=top;spacingLeft=4;spacingRight=4;whiteSpace=wrap;overflow=hidden;rotatable=0;points=[[0,0.5],[1,0.5]];portConstraint=eastwest;" vertex="1" parent="z39Naz20EpBCcd1Hh88v-369">
          <mxGeometry y="154" width="560" height="24" as="geometry" />
        </mxCell>
        <mxCell id="z39Naz20EpBCcd1Hh88v-385" value="UseBlackboard(UBlackboardData*BlackboardAsset,UBlackboardComponent*&amp;amp;BlackboardComponent)" style="text;html=1;strokeColor=none;fillColor=none;align=left;verticalAlign=top;spacingLeft=4;spacingRight=4;whiteSpace=wrap;overflow=hidden;rotatable=0;points=[[0,0.5],[1,0.5]];portConstraint=eastwest;" vertex="1" parent="z39Naz20EpBCcd1Hh88v-369">
          <mxGeometry y="178" width="560" height="24" as="geometry" />
        </mxCell>
        <mxCell id="z39Naz20EpBCcd1Hh88v-386" value="UBlackboardComponent*Blackboard" style="text;html=1;strokeColor=none;fillColor=none;align=left;verticalAlign=top;spacingLeft=4;spacingRight=4;whiteSpace=wrap;overflow=hidden;rotatable=0;points=[[0,0.5],[1,0.5]];portConstraint=eastwest;" vertex="1" parent="z39Naz20EpBCcd1Hh88v-369">
          <mxGeometry y="202" width="560" height="24" as="geometry" />
        </mxCell>
        <mxCell id="z39Naz20EpBCcd1Hh88v-475" style="edgeStyle=none;rounded=0;orthogonalLoop=1;jettySize=auto;html=1;" edge="1" parent="1" source="z39Naz20EpBCcd1Hh88v-390" target="z39Naz20EpBCcd1Hh88v-141">
          <mxGeometry relative="1" as="geometry" />
        </mxCell>
        <mxCell id="z39Naz20EpBCcd1Hh88v-390" value="AGameMode" style="swimlane;html=1;fontStyle=1;align=center;verticalAlign=top;childLayout=stackLayout;horizontal=1;startSize=26;horizontalStack=0;resizeParent=1;resizeLast=0;collapsible=1;marginBottom=0;swimlaneFillColor=#ffffff;rounded=0;shadow=0;comic=0;labelBackgroundColor=none;strokeWidth=1;fillColor=none;fontFamily=Verdana;fontSize=12" vertex="1" parent="1">
          <mxGeometry x="-650" y="809" width="480" height="658" as="geometry">
            <mxRectangle x="440" y="73" width="90" height="30" as="alternateBounds" />
          </mxGeometry>
        </mxCell>
        <mxCell id="z39Naz20EpBCcd1Hh88v-391" value="FName MatchState" style="text;html=1;strokeColor=none;fillColor=none;align=left;verticalAlign=top;spacingLeft=4;spacingRight=4;whiteSpace=wrap;overflow=hidden;rotatable=0;points=[[0,0.5],[1,0.5]];portConstraint=eastwest;" vertex="1" parent="z39Naz20EpBCcd1Hh88v-390">
          <mxGeometry y="26" width="480" height="26" as="geometry" />
        </mxCell>
        <mxCell id="z39Naz20EpBCcd1Hh88v-396" value="TSubclassOf&amp;lt;class ULocalMessage&amp;gt;EngineMessageClass" style="text;html=1;strokeColor=none;fillColor=none;align=left;verticalAlign=top;spacingLeft=4;spacingRight=4;whiteSpace=wrap;overflow=hidden;rotatable=0;points=[[0,0.5],[1,0.5]];portConstraint=eastwest;" vertex="1" parent="z39Naz20EpBCcd1Hh88v-390">
          <mxGeometry y="52" width="480" height="26" as="geometry" />
        </mxCell>
        <mxCell id="z39Naz20EpBCcd1Hh88v-397" value="TSubclassOf&amp;lt;class APlayerController&amp;gt;PlayerControllerClass" style="text;html=1;strokeColor=none;fillColor=none;align=left;verticalAlign=top;spacingLeft=4;spacingRight=4;whiteSpace=wrap;overflow=hidden;rotatable=0;points=[[0,0.5],[1,0.5]];portConstraint=eastwest;" vertex="1" parent="z39Naz20EpBCcd1Hh88v-390">
          <mxGeometry y="78" width="480" height="26" as="geometry" />
        </mxCell>
        <mxCell id="z39Naz20EpBCcd1Hh88v-398" value="TSubclassOf&amp;lt;class ASpectatorPawn&amp;gt;SpectatorClass" style="text;html=1;strokeColor=none;fillColor=none;align=left;verticalAlign=top;spacingLeft=4;spacingRight=4;whiteSpace=wrap;overflow=hidden;rotatable=0;points=[[0,0.5],[1,0.5]];portConstraint=eastwest;" vertex="1" parent="z39Naz20EpBCcd1Hh88v-390">
          <mxGeometry y="104" width="480" height="26" as="geometry" />
        </mxCell>
        <mxCell id="z39Naz20EpBCcd1Hh88v-399" value="TSubclassOf&amp;lt;class APlayerController&amp;gt;ReplaySpectatorPlayerControllerClass" style="text;html=1;strokeColor=none;fillColor=none;align=left;verticalAlign=top;spacingLeft=4;spacingRight=4;whiteSpace=wrap;overflow=hidden;rotatable=0;points=[[0,0.5],[1,0.5]];portConstraint=eastwest;" vertex="1" parent="z39Naz20EpBCcd1Hh88v-390">
          <mxGeometry y="130" width="480" height="26" as="geometry" />
        </mxCell>
        <mxCell id="z39Naz20EpBCcd1Hh88v-400" value="TSubclassOf&amp;lt;class APlayerState&amp;gt;PlayerStateClass" style="text;html=1;strokeColor=none;fillColor=none;align=left;verticalAlign=top;spacingLeft=4;spacingRight=4;whiteSpace=wrap;overflow=hidden;rotatable=0;points=[[0,0.5],[1,0.5]];portConstraint=eastwest;" vertex="1" parent="z39Naz20EpBCcd1Hh88v-390">
          <mxGeometry y="156" width="480" height="26" as="geometry" />
        </mxCell>
        <mxCell id="z39Naz20EpBCcd1Hh88v-401" value="TSubclassOf&amp;lt;class AGameState&amp;gt;GameStateClass" style="text;html=1;strokeColor=none;fillColor=none;align=left;verticalAlign=top;spacingLeft=4;spacingRight=4;whiteSpace=wrap;overflow=hidden;rotatable=0;points=[[0,0.5],[1,0.5]];portConstraint=eastwest;" vertex="1" parent="z39Naz20EpBCcd1Hh88v-390">
          <mxGeometry y="182" width="480" height="26" as="geometry" />
        </mxCell>
        <mxCell id="z39Naz20EpBCcd1Hh88v-402" value="AGameSession*GameSession" style="text;html=1;strokeColor=none;fillColor=none;align=left;verticalAlign=top;spacingLeft=4;spacingRight=4;whiteSpace=wrap;overflow=hidden;rotatable=0;points=[[0,0.5],[1,0.5]];portConstraint=eastwest;" vertex="1" parent="z39Naz20EpBCcd1Hh88v-390">
          <mxGeometry y="208" width="480" height="26" as="geometry" />
        </mxCell>
        <mxCell id="z39Naz20EpBCcd1Hh88v-403" value="AGameState*GameState" style="text;html=1;strokeColor=none;fillColor=none;align=left;verticalAlign=top;spacingLeft=4;spacingRight=4;whiteSpace=wrap;overflow=hidden;rotatable=0;points=[[0,0.5],[1,0.5]];portConstraint=eastwest;" vertex="1" parent="z39Naz20EpBCcd1Hh88v-390">
          <mxGeometry y="234" width="480" height="26" as="geometry" />
        </mxCell>
        <mxCell id="z39Naz20EpBCcd1Hh88v-404" value="uint32 bUseSeamlessTravel=1" style="text;html=1;strokeColor=none;fillColor=none;align=left;verticalAlign=top;spacingLeft=4;spacingRight=4;whiteSpace=wrap;overflow=hidden;rotatable=0;points=[[0,0.5],[1,0.5]];portConstraint=eastwest;" vertex="1" parent="z39Naz20EpBCcd1Hh88v-390">
          <mxGeometry y="260" width="480" height="26" as="geometry" />
        </mxCell>
        <mxCell id="z39Naz20EpBCcd1Hh88v-405" value="uint32 bPauseable=1" style="text;html=1;strokeColor=none;fillColor=none;align=left;verticalAlign=top;spacingLeft=4;spacingRight=4;whiteSpace=wrap;overflow=hidden;rotatable=0;points=[[0,0.5],[1,0.5]];portConstraint=eastwest;" vertex="1" parent="z39Naz20EpBCcd1Hh88v-390">
          <mxGeometry y="286" width="480" height="26" as="geometry" />
        </mxCell>
        <mxCell id="z39Naz20EpBCcd1Hh88v-406" value="uint32 bStartPlayerAsSpectator=1" style="text;html=1;strokeColor=none;fillColor=none;align=left;verticalAlign=top;spacingLeft=4;spacingRight=4;whiteSpace=wrap;overflow=hidden;rotatable=0;points=[[0,0.5],[1,0.5]];portConstraint=eastwest;" vertex="1" parent="z39Naz20EpBCcd1Hh88v-390">
          <mxGeometry y="312" width="480" height="26" as="geometry" />
        </mxCell>
        <mxCell id="z39Naz20EpBCcd1Hh88v-407" value="FString OptionsString" style="text;html=1;strokeColor=none;fillColor=none;align=left;verticalAlign=top;spacingLeft=4;spacingRight=4;whiteSpace=wrap;overflow=hidden;rotatable=0;points=[[0,0.5],[1,0.5]];portConstraint=eastwest;" vertex="1" parent="z39Naz20EpBCcd1Hh88v-390">
          <mxGeometry y="338" width="480" height="26" as="geometry" />
        </mxCell>
        <mxCell id="z39Naz20EpBCcd1Hh88v-408" value="int32 NumSpectators" style="text;html=1;strokeColor=none;fillColor=none;align=left;verticalAlign=top;spacingLeft=4;spacingRight=4;whiteSpace=wrap;overflow=hidden;rotatable=0;points=[[0,0.5],[1,0.5]];portConstraint=eastwest;" vertex="1" parent="z39Naz20EpBCcd1Hh88v-390">
          <mxGeometry y="364" width="480" height="26" as="geometry" />
        </mxCell>
        <mxCell id="z39Naz20EpBCcd1Hh88v-409" value="int32 NumPlayers" style="text;html=1;strokeColor=none;fillColor=none;align=left;verticalAlign=top;spacingLeft=4;spacingRight=4;whiteSpace=wrap;overflow=hidden;rotatable=0;points=[[0,0.5],[1,0.5]];portConstraint=eastwest;" vertex="1" parent="z39Naz20EpBCcd1Hh88v-390">
          <mxGeometry y="390" width="480" height="26" as="geometry" />
        </mxCell>
        <mxCell id="z39Naz20EpBCcd1Hh88v-410" value="int32 NumBots" style="text;html=1;strokeColor=none;fillColor=none;align=left;verticalAlign=top;spacingLeft=4;spacingRight=4;whiteSpace=wrap;overflow=hidden;rotatable=0;points=[[0,0.5],[1,0.5]];portConstraint=eastwest;" vertex="1" parent="z39Naz20EpBCcd1Hh88v-390">
          <mxGeometry y="416" width="480" height="26" as="geometry" />
        </mxCell>
        <mxCell id="z39Naz20EpBCcd1Hh88v-392" value="" style="line;html=1;strokeWidth=1;fillColor=none;align=left;verticalAlign=middle;spacingTop=-1;spacingLeft=3;spacingRight=3;rotatable=0;labelPosition=right;points=[];portConstraint=eastwest;" vertex="1" parent="z39Naz20EpBCcd1Hh88v-390">
          <mxGeometry y="442" width="480" height="8" as="geometry" />
        </mxCell>
        <mxCell id="z39Naz20EpBCcd1Hh88v-393" value="void InitGame(const FString&amp;amp;MapName.const FString&amp;amp;Options,FString&amp;amp;ErrorMessage)" style="text;html=1;strokeColor=none;fillColor=none;align=left;verticalAlign=top;spacingLeft=4;spacingRight=4;whiteSpace=wrap;overflow=hidden;rotatable=0;points=[[0,0.5],[1,0.5]];portConstraint=eastwest;" vertex="1" parent="z39Naz20EpBCcd1Hh88v-390">
          <mxGeometry y="450" width="480" height="26" as="geometry" />
        </mxCell>
        <mxCell id="z39Naz20EpBCcd1Hh88v-411" value="void InitGameState()" style="text;html=1;strokeColor=none;fillColor=none;align=left;verticalAlign=top;spacingLeft=4;spacingRight=4;whiteSpace=wrap;overflow=hidden;rotatable=0;points=[[0,0.5],[1,0.5]];portConstraint=eastwest;" vertex="1" parent="z39Naz20EpBCcd1Hh88v-390">
          <mxGeometry y="476" width="480" height="26" as="geometry" />
        </mxCell>
        <mxCell id="z39Naz20EpBCcd1Hh88v-412" value="bool SetPause(AplayerController*PC,FCanUnpause CanUnpauseDelegate)" style="text;html=1;strokeColor=none;fillColor=none;align=left;verticalAlign=top;spacingLeft=4;spacingRight=4;whiteSpace=wrap;overflow=hidden;rotatable=0;points=[[0,0.5],[1,0.5]];portConstraint=eastwest;" vertex="1" parent="z39Naz20EpBCcd1Hh88v-390">
          <mxGeometry y="502" width="480" height="26" as="geometry" />
        </mxCell>
        <mxCell id="z39Naz20EpBCcd1Hh88v-413" value="void ProcessServerTravel(const FString&amp;amp;URL,bool bAbsolute=false)" style="text;html=1;strokeColor=none;fillColor=none;align=left;verticalAlign=top;spacingLeft=4;spacingRight=4;whiteSpace=wrap;overflow=hidden;rotatable=0;points=[[0,0.5],[1,0.5]];portConstraint=eastwest;" vertex="1" parent="z39Naz20EpBCcd1Hh88v-390">
          <mxGeometry y="528" width="480" height="26" as="geometry" />
        </mxCell>
        <mxCell id="z39Naz20EpBCcd1Hh88v-414" value="APlayerController*ProcessClientTravel(FString&amp;amp; URL,...)" style="text;html=1;strokeColor=none;fillColor=none;align=left;verticalAlign=top;spacingLeft=4;spacingRight=4;whiteSpace=wrap;overflow=hidden;rotatable=0;points=[[0,0.5],[1,0.5]];portConstraint=eastwest;" vertex="1" parent="z39Naz20EpBCcd1Hh88v-390">
          <mxGeometry y="554" width="480" height="26" as="geometry" />
        </mxCell>
        <mxCell id="z39Naz20EpBCcd1Hh88v-415" value="APlayerController*Login(class UPlayer*NewPlayer,...)" style="text;html=1;strokeColor=none;fillColor=none;align=left;verticalAlign=top;spacingLeft=4;spacingRight=4;whiteSpace=wrap;overflow=hidden;rotatable=0;points=[[0,0.5],[1,0.5]];portConstraint=eastwest;" vertex="1" parent="z39Naz20EpBCcd1Hh88v-390">
          <mxGeometry y="580" width="480" height="26" as="geometry" />
        </mxCell>
        <mxCell id="z39Naz20EpBCcd1Hh88v-416" value="void PostLogin(APlayerController*NewPlayer)" style="text;html=1;strokeColor=none;fillColor=none;align=left;verticalAlign=top;spacingLeft=4;spacingRight=4;whiteSpace=wrap;overflow=hidden;rotatable=0;points=[[0,0.5],[1,0.5]];portConstraint=eastwest;" vertex="1" parent="z39Naz20EpBCcd1Hh88v-390">
          <mxGeometry y="606" width="480" height="26" as="geometry" />
        </mxCell>
        <mxCell id="z39Naz20EpBCcd1Hh88v-417" value="void SetMatchState(FName NewState)" style="text;html=1;strokeColor=none;fillColor=none;align=left;verticalAlign=top;spacingLeft=4;spacingRight=4;whiteSpace=wrap;overflow=hidden;rotatable=0;points=[[0,0.5],[1,0.5]];portConstraint=eastwest;" vertex="1" parent="z39Naz20EpBCcd1Hh88v-390">
          <mxGeometry y="632" width="480" height="26" as="geometry" />
        </mxCell>
        <mxCell id="z39Naz20EpBCcd1Hh88v-432" style="edgeStyle=none;rounded=0;orthogonalLoop=1;jettySize=auto;html=1;" edge="1" parent="1" source="z39Naz20EpBCcd1Hh88v-418" target="z39Naz20EpBCcd1Hh88v-390">
          <mxGeometry relative="1" as="geometry" />
        </mxCell>
        <mxCell id="z39Naz20EpBCcd1Hh88v-433" value="组成" style="edgeLabel;html=1;align=center;verticalAlign=middle;resizable=0;points=[];" vertex="1" connectable="0" parent="z39Naz20EpBCcd1Hh88v-432">
          <mxGeometry x="0.2207" relative="1" as="geometry">
            <mxPoint x="47" as="offset" />
          </mxGeometry>
        </mxCell>
        <mxCell id="z39Naz20EpBCcd1Hh88v-418" value="AGameState" style="swimlane;html=1;fontStyle=1;align=center;verticalAlign=top;childLayout=stackLayout;horizontal=1;startSize=26;horizontalStack=0;resizeParent=1;resizeLast=0;collapsible=1;marginBottom=0;swimlaneFillColor=#ffffff;rounded=0;shadow=0;comic=0;labelBackgroundColor=none;strokeWidth=1;fillColor=none;fontFamily=Verdana;fontSize=12" vertex="1" parent="1">
          <mxGeometry x="-80" y="1120" width="300" height="170" as="geometry">
            <mxRectangle x="440" y="73" width="90" height="30" as="alternateBounds" />
          </mxGeometry>
        </mxCell>
        <mxCell id="z39Naz20EpBCcd1Hh88v-419" value="FName MatchState 这个和相关的回调是围栏在网络中传播同步游戏的状态使用的" style="text;html=1;strokeColor=none;fillColor=none;align=left;verticalAlign=top;spacingLeft=4;spacingRight=4;whiteSpace=wrap;overflow=hidden;rotatable=0;points=[[0,0.5],[1,0.5]];portConstraint=eastwest;" vertex="1" parent="z39Naz20EpBCcd1Hh88v-418">
          <mxGeometry y="26" width="300" height="34" as="geometry" />
        </mxCell>
        <mxCell id="z39Naz20EpBCcd1Hh88v-423" value="TArray&amp;lt;classAplayerState*&amp;gt;PlayerArray玩家状态列表" style="text;html=1;strokeColor=none;fillColor=none;align=left;verticalAlign=top;spacingLeft=4;spacingRight=4;whiteSpace=wrap;overflow=hidden;rotatable=0;points=[[0,0.5],[1,0.5]];portConstraint=eastwest;" vertex="1" parent="z39Naz20EpBCcd1Hh88v-418">
          <mxGeometry y="60" width="300" height="26" as="geometry" />
        </mxCell>
        <mxCell id="z39Naz20EpBCcd1Hh88v-420" value="" style="line;html=1;strokeWidth=1;fillColor=none;align=left;verticalAlign=middle;spacingTop=-1;spacingLeft=3;spacingRight=3;rotatable=0;labelPosition=right;points=[];portConstraint=eastwest;" vertex="1" parent="z39Naz20EpBCcd1Hh88v-418">
          <mxGeometry y="86" width="300" height="8" as="geometry" />
        </mxCell>
        <mxCell id="z39Naz20EpBCcd1Hh88v-421" value="void SetMatchState(FNameNewState)" style="text;html=1;strokeColor=none;fillColor=none;align=left;verticalAlign=top;spacingLeft=4;spacingRight=4;whiteSpace=wrap;overflow=hidden;rotatable=0;points=[[0,0.5],[1,0.5]];portConstraint=eastwest;" vertex="1" parent="z39Naz20EpBCcd1Hh88v-418">
          <mxGeometry y="94" width="300" height="24" as="geometry" />
        </mxCell>
        <mxCell id="z39Naz20EpBCcd1Hh88v-424" value="void AddPlayerState(classAPlayerState*PlayerState)" style="text;html=1;strokeColor=none;fillColor=none;align=left;verticalAlign=top;spacingLeft=4;spacingRight=4;whiteSpace=wrap;overflow=hidden;rotatable=0;points=[[0,0.5],[1,0.5]];portConstraint=eastwest;" vertex="1" parent="z39Naz20EpBCcd1Hh88v-418">
          <mxGeometry y="118" width="300" height="24" as="geometry" />
        </mxCell>
        <mxCell id="z39Naz20EpBCcd1Hh88v-450" style="edgeStyle=none;rounded=0;orthogonalLoop=1;jettySize=auto;html=1;" edge="1" parent="1" source="z39Naz20EpBCcd1Hh88v-437" target="z39Naz20EpBCcd1Hh88v-346">
          <mxGeometry relative="1" as="geometry" />
        </mxCell>
        <mxCell id="z39Naz20EpBCcd1Hh88v-451" value="组成" style="edgeLabel;html=1;align=center;verticalAlign=middle;resizable=0;points=[];" vertex="1" connectable="0" parent="z39Naz20EpBCcd1Hh88v-450">
          <mxGeometry x="-0.2076" y="2" relative="1" as="geometry">
            <mxPoint as="offset" />
          </mxGeometry>
        </mxCell>
        <mxCell id="z39Naz20EpBCcd1Hh88v-457" value="" style="edgeStyle=none;rounded=0;orthogonalLoop=1;jettySize=auto;html=1;" edge="1" parent="1" source="z39Naz20EpBCcd1Hh88v-437" target="z39Naz20EpBCcd1Hh88v-452">
          <mxGeometry relative="1" as="geometry" />
        </mxCell>
        <mxCell id="z39Naz20EpBCcd1Hh88v-468" value="派生" style="edgeLabel;html=1;align=center;verticalAlign=middle;resizable=0;points=[];" vertex="1" connectable="0" parent="z39Naz20EpBCcd1Hh88v-457">
          <mxGeometry x="0.0608" y="-2" relative="1" as="geometry">
            <mxPoint as="offset" />
          </mxGeometry>
        </mxCell>
        <mxCell id="z39Naz20EpBCcd1Hh88v-472" style="edgeStyle=none;rounded=0;orthogonalLoop=1;jettySize=auto;html=1;" edge="1" parent="1" source="z39Naz20EpBCcd1Hh88v-452" target="z39Naz20EpBCcd1Hh88v-183">
          <mxGeometry relative="1" as="geometry" />
        </mxCell>
        <mxCell id="z39Naz20EpBCcd1Hh88v-473" value="组成" style="edgeLabel;html=1;align=center;verticalAlign=middle;resizable=0;points=[];" vertex="1" connectable="0" parent="z39Naz20EpBCcd1Hh88v-472">
          <mxGeometry x="0.3466" y="-2" relative="1" as="geometry">
            <mxPoint x="-5" y="12" as="offset" />
          </mxGeometry>
        </mxCell>
        <mxCell id="z39Naz20EpBCcd1Hh88v-452" value="ULocalPlayer" style="swimlane;html=1;fontStyle=1;align=center;verticalAlign=top;childLayout=stackLayout;horizontal=1;startSize=26;horizontalStack=0;resizeParent=1;resizeLast=0;collapsible=1;marginBottom=0;swimlaneFillColor=#ffffff;rounded=0;shadow=0;comic=0;labelBackgroundColor=none;strokeWidth=1;fillColor=none;fontFamily=Verdana;fontSize=12" vertex="1" parent="1">
          <mxGeometry x="-1490" y="600" width="420" height="333" as="geometry">
            <mxRectangle x="440" y="73" width="90" height="30" as="alternateBounds" />
          </mxGeometry>
        </mxCell>
        <mxCell id="z39Naz20EpBCcd1Hh88v-454" value="TSharedPtr&amp;lt;const FUniqueNetId&amp;gt;CachedUniqueNetId" style="text;html=1;strokeColor=none;fillColor=none;align=left;verticalAlign=top;spacingLeft=4;spacingRight=4;whiteSpace=wrap;overflow=hidden;rotatable=0;points=[[0,0.5],[1,0.5]];portConstraint=eastwest;" vertex="1" parent="z39Naz20EpBCcd1Hh88v-452">
          <mxGeometry y="26" width="420" height="26" as="geometry" />
        </mxCell>
        <mxCell id="z39Naz20EpBCcd1Hh88v-458" value="UGameViewportClient*ViewportClient" style="text;html=1;strokeColor=none;fillColor=none;align=left;verticalAlign=top;spacingLeft=4;spacingRight=4;whiteSpace=wrap;overflow=hidden;rotatable=0;points=[[0,0.5],[1,0.5]];portConstraint=eastwest;" vertex="1" parent="z39Naz20EpBCcd1Hh88v-452">
          <mxGeometry y="52" width="420" height="26" as="geometry" />
        </mxCell>
        <mxCell id="z39Naz20EpBCcd1Hh88v-459" value="FVector2D Origin" style="text;html=1;strokeColor=none;fillColor=none;align=left;verticalAlign=top;spacingLeft=4;spacingRight=4;whiteSpace=wrap;overflow=hidden;rotatable=0;points=[[0,0.5],[1,0.5]];portConstraint=eastwest;" vertex="1" parent="z39Naz20EpBCcd1Hh88v-452">
          <mxGeometry y="78" width="420" height="26" as="geometry" />
        </mxCell>
        <mxCell id="z39Naz20EpBCcd1Hh88v-460" value="FVector2D Size" style="text;html=1;strokeColor=none;fillColor=none;align=left;verticalAlign=top;spacingLeft=4;spacingRight=4;whiteSpace=wrap;overflow=hidden;rotatable=0;points=[[0,0.5],[1,0.5]];portConstraint=eastwest;" vertex="1" parent="z39Naz20EpBCcd1Hh88v-452">
          <mxGeometry y="104" width="420" height="26" as="geometry" />
        </mxCell>
        <mxCell id="z39Naz20EpBCcd1Hh88v-461" value="FVector LastViewLocation" style="text;html=1;strokeColor=none;fillColor=none;align=left;verticalAlign=top;spacingLeft=4;spacingRight=4;whiteSpace=wrap;overflow=hidden;rotatable=0;points=[[0,0.5],[1,0.5]];portConstraint=eastwest;" vertex="1" parent="z39Naz20EpBCcd1Hh88v-452">
          <mxGeometry y="130" width="420" height="26" as="geometry" />
        </mxCell>
        <mxCell id="z39Naz20EpBCcd1Hh88v-462" value="TSubclassOf&amp;lt;class APlayerController&amp;gt;PendingLevelPlayerControllerClass" style="text;html=1;strokeColor=none;fillColor=none;align=left;verticalAlign=top;spacingLeft=4;spacingRight=4;whiteSpace=wrap;overflow=hidden;rotatable=0;points=[[0,0.5],[1,0.5]];portConstraint=eastwest;" vertex="1" parent="z39Naz20EpBCcd1Hh88v-452">
          <mxGeometry y="156" width="420" height="26" as="geometry" />
        </mxCell>
        <mxCell id="z39Naz20EpBCcd1Hh88v-463" value="int32 ControllerId" style="text;html=1;strokeColor=none;fillColor=none;align=left;verticalAlign=top;spacingLeft=4;spacingRight=4;whiteSpace=wrap;overflow=hidden;rotatable=0;points=[[0,0.5],[1,0.5]];portConstraint=eastwest;" vertex="1" parent="z39Naz20EpBCcd1Hh88v-452">
          <mxGeometry y="182" width="420" height="26" as="geometry" />
        </mxCell>
        <mxCell id="z39Naz20EpBCcd1Hh88v-455" value="" style="line;html=1;strokeWidth=1;fillColor=none;align=left;verticalAlign=middle;spacingTop=-1;spacingLeft=3;spacingRight=3;rotatable=0;labelPosition=right;points=[];portConstraint=eastwest;" vertex="1" parent="z39Naz20EpBCcd1Hh88v-452">
          <mxGeometry y="208" width="420" height="8" as="geometry" />
        </mxCell>
        <mxCell id="z39Naz20EpBCcd1Hh88v-456" value="UWorld*GetWorld()" style="text;html=1;strokeColor=none;fillColor=none;align=left;verticalAlign=top;spacingLeft=4;spacingRight=4;whiteSpace=wrap;overflow=hidden;rotatable=0;points=[[0,0.5],[1,0.5]];portConstraint=eastwest;" vertex="1" parent="z39Naz20EpBCcd1Hh88v-452">
          <mxGeometry y="216" width="420" height="26" as="geometry" />
        </mxCell>
        <mxCell id="z39Naz20EpBCcd1Hh88v-464" value="UGameInstance*GetGameInstance()const" style="text;html=1;strokeColor=none;fillColor=none;align=left;verticalAlign=top;spacingLeft=4;spacingRight=4;whiteSpace=wrap;overflow=hidden;rotatable=0;points=[[0,0.5],[1,0.5]];portConstraint=eastwest;" vertex="1" parent="z39Naz20EpBCcd1Hh88v-452">
          <mxGeometry y="242" width="420" height="26" as="geometry" />
        </mxCell>
        <mxCell id="z39Naz20EpBCcd1Hh88v-465" value="bool SpawnPlayActor(const FString&amp;amp;URL,FString&amp;amp;OutError,UWorld*InWorld" style="text;html=1;strokeColor=none;fillColor=none;align=left;verticalAlign=top;spacingLeft=4;spacingRight=4;whiteSpace=wrap;overflow=hidden;rotatable=0;points=[[0,0.5],[1,0.5]];portConstraint=eastwest;" vertex="1" parent="z39Naz20EpBCcd1Hh88v-452">
          <mxGeometry y="268" width="420" height="26" as="geometry" />
        </mxCell>
        <mxCell id="z39Naz20EpBCcd1Hh88v-466" value="bool IsPrimaryPlayer()const" style="text;html=1;strokeColor=none;fillColor=none;align=left;verticalAlign=top;spacingLeft=4;spacingRight=4;whiteSpace=wrap;overflow=hidden;rotatable=0;points=[[0,0.5],[1,0.5]];portConstraint=eastwest;" vertex="1" parent="z39Naz20EpBCcd1Hh88v-452">
          <mxGeometry y="294" width="420" height="26" as="geometry" />
        </mxCell>
        <mxCell id="z39Naz20EpBCcd1Hh88v-481" value="" style="edgeStyle=none;rounded=0;orthogonalLoop=1;jettySize=auto;html=1;" edge="1" parent="1" source="z39Naz20EpBCcd1Hh88v-437" target="z39Naz20EpBCcd1Hh88v-476">
          <mxGeometry relative="1" as="geometry" />
        </mxCell>
        <mxCell id="z39Naz20EpBCcd1Hh88v-495" value="派生" style="edgeLabel;html=1;align=center;verticalAlign=middle;resizable=0;points=[];" vertex="1" connectable="0" parent="z39Naz20EpBCcd1Hh88v-481">
          <mxGeometry x="-0.1472" y="2" relative="1" as="geometry">
            <mxPoint as="offset" />
          </mxGeometry>
        </mxCell>
        <mxCell id="z39Naz20EpBCcd1Hh88v-437" value="UPlayer" style="swimlane;html=1;fontStyle=1;align=center;verticalAlign=top;childLayout=stackLayout;horizontal=1;startSize=26;horizontalStack=0;resizeParent=1;resizeLast=0;collapsible=1;marginBottom=0;swimlaneFillColor=#ffffff;rounded=0;shadow=0;comic=0;labelBackgroundColor=none;strokeWidth=1;fillColor=none;fontFamily=Verdana;fontSize=12" vertex="1" parent="1">
          <mxGeometry x="-550" y="530" width="250" height="216" as="geometry">
            <mxRectangle x="440" y="73" width="90" height="30" as="alternateBounds" />
          </mxGeometry>
        </mxCell>
        <mxCell id="z39Naz20EpBCcd1Hh88v-443" value="APlayerController*PlayerController" style="text;html=1;strokeColor=none;fillColor=none;align=left;verticalAlign=top;spacingLeft=4;spacingRight=4;whiteSpace=wrap;overflow=hidden;rotatable=0;points=[[0,0.5],[1,0.5]];portConstraint=eastwest;" vertex="1" parent="z39Naz20EpBCcd1Hh88v-437">
          <mxGeometry y="26" width="250" height="26" as="geometry" />
        </mxCell>
        <mxCell id="z39Naz20EpBCcd1Hh88v-447" value="int32 CurrentNetSpeed" style="text;html=1;strokeColor=none;fillColor=none;align=left;verticalAlign=top;spacingLeft=4;spacingRight=4;whiteSpace=wrap;overflow=hidden;rotatable=0;points=[[0,0.5],[1,0.5]];portConstraint=eastwest;" vertex="1" parent="z39Naz20EpBCcd1Hh88v-437">
          <mxGeometry y="52" width="250" height="26" as="geometry" />
        </mxCell>
        <mxCell id="z39Naz20EpBCcd1Hh88v-444" value="" style="line;html=1;strokeWidth=1;fillColor=none;align=left;verticalAlign=middle;spacingTop=-1;spacingLeft=3;spacingRight=3;rotatable=0;labelPosition=right;points=[];portConstraint=eastwest;" vertex="1" parent="z39Naz20EpBCcd1Hh88v-437">
          <mxGeometry y="78" width="250" height="8" as="geometry" />
        </mxCell>
        <mxCell id="z39Naz20EpBCcd1Hh88v-445" value="void SwitchController(APlayerController*PC" style="text;html=1;strokeColor=none;fillColor=none;align=left;verticalAlign=top;spacingLeft=4;spacingRight=4;whiteSpace=wrap;overflow=hidden;rotatable=0;points=[[0,0.5],[1,0.5]];portConstraint=eastwest;" vertex="1" parent="z39Naz20EpBCcd1Hh88v-437">
          <mxGeometry y="86" width="250" height="26" as="geometry" />
        </mxCell>
        <mxCell id="z39Naz20EpBCcd1Hh88v-470" value="" style="edgeStyle=none;rounded=0;orthogonalLoop=1;jettySize=auto;html=1;endArrow=none;" edge="1" parent="1" source="z39Naz20EpBCcd1Hh88v-5" target="z39Naz20EpBCcd1Hh88v-437">
          <mxGeometry relative="1" as="geometry">
            <mxPoint x="465" y="129.23943661971828" as="sourcePoint" />
            <mxPoint x="-770" y="457.12323943661977" as="targetPoint" />
          </mxGeometry>
        </mxCell>
        <mxCell id="z39Naz20EpBCcd1Hh88v-471" value="派生" style="edgeLabel;html=1;align=center;verticalAlign=middle;resizable=0;points=[];" vertex="1" connectable="0" parent="z39Naz20EpBCcd1Hh88v-470">
          <mxGeometry x="-0.1067" relative="1" as="geometry">
            <mxPoint x="-46" y="12" as="offset" />
          </mxGeometry>
        </mxCell>
        <mxCell id="z39Naz20EpBCcd1Hh88v-428" value="GameSession" style="swimlane;html=1;fontStyle=1;align=center;verticalAlign=top;childLayout=stackLayout;horizontal=1;startSize=26;horizontalStack=0;resizeParent=1;resizeLast=0;collapsible=1;marginBottom=0;swimlaneFillColor=#ffffff;rounded=0;shadow=0;comic=0;labelBackgroundColor=none;strokeWidth=1;fillColor=none;fontFamily=Verdana;fontSize=12" vertex="1" parent="1">
          <mxGeometry x="-240" y="626" width="160" height="100" as="geometry">
            <mxRectangle x="440" y="73" width="90" height="30" as="alternateBounds" />
          </mxGeometry>
        </mxCell>
        <mxCell id="z39Naz20EpBCcd1Hh88v-429" value="mem" style="text;html=1;strokeColor=none;fillColor=none;align=left;verticalAlign=top;spacingLeft=4;spacingRight=4;whiteSpace=wrap;overflow=hidden;rotatable=0;points=[[0,0.5],[1,0.5]];portConstraint=eastwest;" vertex="1" parent="z39Naz20EpBCcd1Hh88v-428">
          <mxGeometry y="26" width="160" height="26" as="geometry" />
        </mxCell>
        <mxCell id="z39Naz20EpBCcd1Hh88v-430" value="" style="line;html=1;strokeWidth=1;fillColor=none;align=left;verticalAlign=middle;spacingTop=-1;spacingLeft=3;spacingRight=3;rotatable=0;labelPosition=right;points=[];portConstraint=eastwest;" vertex="1" parent="z39Naz20EpBCcd1Hh88v-428">
          <mxGeometry y="52" width="160" height="8" as="geometry" />
        </mxCell>
        <mxCell id="z39Naz20EpBCcd1Hh88v-431" value="func" style="text;html=1;strokeColor=none;fillColor=none;align=left;verticalAlign=top;spacingLeft=4;spacingRight=4;whiteSpace=wrap;overflow=hidden;rotatable=0;points=[[0,0.5],[1,0.5]];portConstraint=eastwest;" vertex="1" parent="z39Naz20EpBCcd1Hh88v-428">
          <mxGeometry y="60" width="160" height="26" as="geometry" />
        </mxCell>
        <mxCell id="z39Naz20EpBCcd1Hh88v-502" style="edgeStyle=none;rounded=0;orthogonalLoop=1;jettySize=auto;html=1;" edge="1" parent="1" source="z39Naz20EpBCcd1Hh88v-476" target="z39Naz20EpBCcd1Hh88v-486">
          <mxGeometry relative="1" as="geometry" />
        </mxCell>
        <mxCell id="z39Naz20EpBCcd1Hh88v-503" value="组成" style="edgeLabel;html=1;align=center;verticalAlign=middle;resizable=0;points=[];" vertex="1" connectable="0" parent="z39Naz20EpBCcd1Hh88v-502">
          <mxGeometry x="-0.0854" y="2" relative="1" as="geometry">
            <mxPoint as="offset" />
          </mxGeometry>
        </mxCell>
        <mxCell id="z39Naz20EpBCcd1Hh88v-512" value="" style="edgeStyle=none;rounded=0;orthogonalLoop=1;jettySize=auto;html=1;" edge="1" parent="1" source="z39Naz20EpBCcd1Hh88v-476" target="z39Naz20EpBCcd1Hh88v-504">
          <mxGeometry relative="1" as="geometry" />
        </mxCell>
        <mxCell id="z39Naz20EpBCcd1Hh88v-513" value="派生" style="edgeLabel;html=1;align=center;verticalAlign=middle;resizable=0;points=[];" vertex="1" connectable="0" parent="z39Naz20EpBCcd1Hh88v-512">
          <mxGeometry x="-0.1942" y="1" relative="1" as="geometry">
            <mxPoint as="offset" />
          </mxGeometry>
        </mxCell>
        <mxCell id="z39Naz20EpBCcd1Hh88v-522" value="" style="edgeStyle=none;rounded=0;orthogonalLoop=1;jettySize=auto;html=1;" edge="1" parent="1" source="z39Naz20EpBCcd1Hh88v-476" target="z39Naz20EpBCcd1Hh88v-514">
          <mxGeometry relative="1" as="geometry" />
        </mxCell>
        <mxCell id="z39Naz20EpBCcd1Hh88v-523" value="派生" style="edgeLabel;html=1;align=center;verticalAlign=middle;resizable=0;points=[];" vertex="1" connectable="0" parent="z39Naz20EpBCcd1Hh88v-522">
          <mxGeometry x="-0.1735" y="4" relative="1" as="geometry">
            <mxPoint as="offset" />
          </mxGeometry>
        </mxCell>
        <mxCell id="z39Naz20EpBCcd1Hh88v-532" value="" style="edgeStyle=none;rounded=0;orthogonalLoop=1;jettySize=auto;html=1;" edge="1" parent="1" source="z39Naz20EpBCcd1Hh88v-476" target="z39Naz20EpBCcd1Hh88v-524">
          <mxGeometry relative="1" as="geometry" />
        </mxCell>
        <mxCell id="z39Naz20EpBCcd1Hh88v-533" value="派生" style="edgeLabel;html=1;align=center;verticalAlign=middle;resizable=0;points=[];" vertex="1" connectable="0" parent="z39Naz20EpBCcd1Hh88v-532">
          <mxGeometry x="0.2326" y="1" relative="1" as="geometry">
            <mxPoint as="offset" />
          </mxGeometry>
        </mxCell>
        <mxCell id="z39Naz20EpBCcd1Hh88v-476" value="UNetConnection一个网络连接" style="swimlane;html=1;fontStyle=1;align=center;verticalAlign=top;childLayout=stackLayout;horizontal=1;startSize=26;horizontalStack=0;resizeParent=1;resizeLast=0;collapsible=1;marginBottom=0;swimlaneFillColor=#ffffff;rounded=0;shadow=0;comic=0;labelBackgroundColor=none;strokeWidth=1;fillColor=none;fontFamily=Verdana;fontSize=12" vertex="1" parent="1">
          <mxGeometry x="-980" y="810" width="250" height="216" as="geometry">
            <mxRectangle x="440" y="73" width="90" height="30" as="alternateBounds" />
          </mxGeometry>
        </mxCell>
        <mxCell id="z39Naz20EpBCcd1Hh88v-477" value="TArray&amp;lt;UChildConnection*&amp;gt;Children" style="text;html=1;strokeColor=none;fillColor=none;align=left;verticalAlign=top;spacingLeft=4;spacingRight=4;whiteSpace=wrap;overflow=hidden;rotatable=0;points=[[0,0.5],[1,0.5]];portConstraint=eastwest;" vertex="1" parent="z39Naz20EpBCcd1Hh88v-476">
          <mxGeometry y="26" width="250" height="26" as="geometry" />
        </mxCell>
        <mxCell id="z39Naz20EpBCcd1Hh88v-482" value="UNetDriver*Driver" style="text;html=1;strokeColor=none;fillColor=none;align=left;verticalAlign=top;spacingLeft=4;spacingRight=4;whiteSpace=wrap;overflow=hidden;rotatable=0;points=[[0,0.5],[1,0.5]];portConstraint=eastwest;" vertex="1" parent="z39Naz20EpBCcd1Hh88v-476">
          <mxGeometry y="52" width="250" height="26" as="geometry" />
        </mxCell>
        <mxCell id="z39Naz20EpBCcd1Hh88v-483" value="UPackageMap*PackageMap" style="text;html=1;strokeColor=none;fillColor=none;align=left;verticalAlign=top;spacingLeft=4;spacingRight=4;whiteSpace=wrap;overflow=hidden;rotatable=0;points=[[0,0.5],[1,0.5]];portConstraint=eastwest;" vertex="1" parent="z39Naz20EpBCcd1Hh88v-476">
          <mxGeometry y="78" width="250" height="26" as="geometry" />
        </mxCell>
        <mxCell id="z39Naz20EpBCcd1Hh88v-484" value="TArray&amp;lt;class UChannel*&amp;gt;OpenChannels" style="text;html=1;strokeColor=none;fillColor=none;align=left;verticalAlign=top;spacingLeft=4;spacingRight=4;whiteSpace=wrap;overflow=hidden;rotatable=0;points=[[0,0.5],[1,0.5]];portConstraint=eastwest;" vertex="1" parent="z39Naz20EpBCcd1Hh88v-476">
          <mxGeometry y="104" width="250" height="26" as="geometry" />
        </mxCell>
        <mxCell id="z39Naz20EpBCcd1Hh88v-485" value="TArray&amp;lt;class AActor*&amp;gt;SentTemporaries" style="text;html=1;strokeColor=none;fillColor=none;align=left;verticalAlign=top;spacingLeft=4;spacingRight=4;whiteSpace=wrap;overflow=hidden;rotatable=0;points=[[0,0.5],[1,0.5]];portConstraint=eastwest;" vertex="1" parent="z39Naz20EpBCcd1Hh88v-476">
          <mxGeometry y="130" width="250" height="26" as="geometry" />
        </mxCell>
        <mxCell id="z39Naz20EpBCcd1Hh88v-479" value="" style="line;html=1;strokeWidth=1;fillColor=none;align=left;verticalAlign=middle;spacingTop=-1;spacingLeft=3;spacingRight=3;rotatable=0;labelPosition=right;points=[];portConstraint=eastwest;" vertex="1" parent="z39Naz20EpBCcd1Hh88v-476">
          <mxGeometry y="156" width="250" height="8" as="geometry" />
        </mxCell>
        <mxCell id="z39Naz20EpBCcd1Hh88v-480" value="func" style="text;html=1;strokeColor=none;fillColor=none;align=left;verticalAlign=top;spacingLeft=4;spacingRight=4;whiteSpace=wrap;overflow=hidden;rotatable=0;points=[[0,0.5],[1,0.5]];portConstraint=eastwest;" vertex="1" parent="z39Naz20EpBCcd1Hh88v-476">
          <mxGeometry y="164" width="250" height="26" as="geometry" />
        </mxCell>
        <mxCell id="z39Naz20EpBCcd1Hh88v-500" style="edgeStyle=none;rounded=0;orthogonalLoop=1;jettySize=auto;html=1;" edge="1" parent="1" source="z39Naz20EpBCcd1Hh88v-486" target="z39Naz20EpBCcd1Hh88v-164">
          <mxGeometry relative="1" as="geometry" />
        </mxCell>
        <mxCell id="z39Naz20EpBCcd1Hh88v-501" value="组成" style="edgeLabel;html=1;align=center;verticalAlign=middle;resizable=0;points=[];" vertex="1" connectable="0" parent="z39Naz20EpBCcd1Hh88v-500">
          <mxGeometry x="-0.2323" y="-2" relative="1" as="geometry">
            <mxPoint as="offset" />
          </mxGeometry>
        </mxCell>
        <mxCell id="z39Naz20EpBCcd1Hh88v-486" value="&lt;span style=&quot;font-family: Helvetica; font-weight: 400; text-align: left;&quot;&gt;UNetDriver&lt;/span&gt;" style="swimlane;html=1;fontStyle=1;align=center;verticalAlign=top;childLayout=stackLayout;horizontal=1;startSize=26;horizontalStack=0;resizeParent=1;resizeLast=0;collapsible=1;marginBottom=0;swimlaneFillColor=#ffffff;rounded=0;shadow=0;comic=0;labelBackgroundColor=none;strokeWidth=1;fillColor=none;fontFamily=Verdana;fontSize=12" vertex="1" parent="1">
          <mxGeometry x="-820" y="434" width="250" height="146" as="geometry">
            <mxRectangle x="440" y="73" width="90" height="30" as="alternateBounds" />
          </mxGeometry>
        </mxCell>
        <mxCell id="z39Naz20EpBCcd1Hh88v-490" value="UNetConnection*ServerConnection" style="text;html=1;strokeColor=none;fillColor=none;align=left;verticalAlign=top;spacingLeft=4;spacingRight=4;whiteSpace=wrap;overflow=hidden;rotatable=0;points=[[0,0.5],[1,0.5]];portConstraint=eastwest;" vertex="1" parent="z39Naz20EpBCcd1Hh88v-486">
          <mxGeometry y="26" width="250" height="26" as="geometry" />
        </mxCell>
        <mxCell id="z39Naz20EpBCcd1Hh88v-491" value="TArray&amp;lt;UNetConnection*&amp;gt;ClientConnections" style="text;html=1;strokeColor=none;fillColor=none;align=left;verticalAlign=top;spacingLeft=4;spacingRight=4;whiteSpace=wrap;overflow=hidden;rotatable=0;points=[[0,0.5],[1,0.5]];portConstraint=eastwest;" vertex="1" parent="z39Naz20EpBCcd1Hh88v-486">
          <mxGeometry y="52" width="250" height="26" as="geometry" />
        </mxCell>
        <mxCell id="z39Naz20EpBCcd1Hh88v-492" value="" style="line;html=1;strokeWidth=1;fillColor=none;align=left;verticalAlign=middle;spacingTop=-1;spacingLeft=3;spacingRight=3;rotatable=0;labelPosition=right;points=[];portConstraint=eastwest;" vertex="1" parent="z39Naz20EpBCcd1Hh88v-486">
          <mxGeometry y="78" width="250" height="8" as="geometry" />
        </mxCell>
        <mxCell id="z39Naz20EpBCcd1Hh88v-493" value="func" style="text;html=1;strokeColor=none;fillColor=none;align=left;verticalAlign=top;spacingLeft=4;spacingRight=4;whiteSpace=wrap;overflow=hidden;rotatable=0;points=[[0,0.5],[1,0.5]];portConstraint=eastwest;" vertex="1" parent="z39Naz20EpBCcd1Hh88v-486">
          <mxGeometry y="86" width="250" height="26" as="geometry" />
        </mxCell>
        <mxCell id="z39Naz20EpBCcd1Hh88v-504" value="UChildConnection" style="swimlane;html=1;fontStyle=1;align=center;verticalAlign=top;childLayout=stackLayout;horizontal=1;startSize=26;horizontalStack=0;resizeParent=1;resizeLast=0;collapsible=1;marginBottom=0;swimlaneFillColor=#ffffff;rounded=0;shadow=0;comic=0;labelBackgroundColor=none;strokeWidth=1;fillColor=none;fontFamily=Verdana;fontSize=12" vertex="1" parent="1">
          <mxGeometry x="-960" y="1150" width="280" height="110" as="geometry">
            <mxRectangle x="440" y="73" width="90" height="30" as="alternateBounds" />
          </mxGeometry>
        </mxCell>
        <mxCell id="z39Naz20EpBCcd1Hh88v-508" value="Used as an optomization for split-screen games" style="text;html=1;strokeColor=none;fillColor=none;align=left;verticalAlign=top;spacingLeft=4;spacingRight=4;whiteSpace=wrap;overflow=hidden;rotatable=0;points=[[0,0.5],[1,0.5]];portConstraint=eastwest;" vertex="1" parent="z39Naz20EpBCcd1Hh88v-504">
          <mxGeometry y="26" width="280" height="26" as="geometry" />
        </mxCell>
        <mxCell id="z39Naz20EpBCcd1Hh88v-510" value="" style="line;html=1;strokeWidth=1;fillColor=none;align=left;verticalAlign=middle;spacingTop=-1;spacingLeft=3;spacingRight=3;rotatable=0;labelPosition=right;points=[];portConstraint=eastwest;" vertex="1" parent="z39Naz20EpBCcd1Hh88v-504">
          <mxGeometry y="52" width="280" height="8" as="geometry" />
        </mxCell>
        <mxCell id="z39Naz20EpBCcd1Hh88v-511" value="func" style="text;html=1;strokeColor=none;fillColor=none;align=left;verticalAlign=top;spacingLeft=4;spacingRight=4;whiteSpace=wrap;overflow=hidden;rotatable=0;points=[[0,0.5],[1,0.5]];portConstraint=eastwest;" vertex="1" parent="z39Naz20EpBCcd1Hh88v-504">
          <mxGeometry y="60" width="280" height="26" as="geometry" />
        </mxCell>
        <mxCell id="z39Naz20EpBCcd1Hh88v-514" value="OculusNetConnection" style="swimlane;html=1;fontStyle=1;align=center;verticalAlign=top;childLayout=stackLayout;horizontal=1;startSize=26;horizontalStack=0;resizeParent=1;resizeLast=0;collapsible=1;marginBottom=0;swimlaneFillColor=#ffffff;rounded=0;shadow=0;comic=0;labelBackgroundColor=none;strokeWidth=1;fillColor=none;fontFamily=Verdana;fontSize=12" vertex="1" parent="1">
          <mxGeometry x="-1170" y="1150" width="180" height="140" as="geometry">
            <mxRectangle x="440" y="73" width="90" height="30" as="alternateBounds" />
          </mxGeometry>
        </mxCell>
        <mxCell id="z39Naz20EpBCcd1Hh88v-519" value="mem" style="text;html=1;strokeColor=none;fillColor=none;align=left;verticalAlign=top;spacingLeft=4;spacingRight=4;whiteSpace=wrap;overflow=hidden;rotatable=0;points=[[0,0.5],[1,0.5]];portConstraint=eastwest;" vertex="1" parent="z39Naz20EpBCcd1Hh88v-514">
          <mxGeometry y="26" width="180" height="26" as="geometry" />
        </mxCell>
        <mxCell id="z39Naz20EpBCcd1Hh88v-520" value="" style="line;html=1;strokeWidth=1;fillColor=none;align=left;verticalAlign=middle;spacingTop=-1;spacingLeft=3;spacingRight=3;rotatable=0;labelPosition=right;points=[];portConstraint=eastwest;" vertex="1" parent="z39Naz20EpBCcd1Hh88v-514">
          <mxGeometry y="52" width="180" height="8" as="geometry" />
        </mxCell>
        <mxCell id="z39Naz20EpBCcd1Hh88v-521" value="func" style="text;html=1;strokeColor=none;fillColor=none;align=left;verticalAlign=top;spacingLeft=4;spacingRight=4;whiteSpace=wrap;overflow=hidden;rotatable=0;points=[[0,0.5],[1,0.5]];portConstraint=eastwest;" vertex="1" parent="z39Naz20EpBCcd1Hh88v-514">
          <mxGeometry y="60" width="180" height="26" as="geometry" />
        </mxCell>
        <mxCell id="z39Naz20EpBCcd1Hh88v-524" value="IpConnection" style="swimlane;html=1;fontStyle=1;align=center;verticalAlign=top;childLayout=stackLayout;horizontal=1;startSize=26;horizontalStack=0;resizeParent=1;resizeLast=0;collapsible=1;marginBottom=0;swimlaneFillColor=#ffffff;rounded=0;shadow=0;comic=0;labelBackgroundColor=none;strokeWidth=1;fillColor=none;fontFamily=Verdana;fontSize=12" vertex="1" parent="1">
          <mxGeometry x="-1360" y="980" width="180" height="130" as="geometry">
            <mxRectangle x="440" y="73" width="90" height="30" as="alternateBounds" />
          </mxGeometry>
        </mxCell>
        <mxCell id="z39Naz20EpBCcd1Hh88v-529" value="FSocket*Socket" style="text;html=1;strokeColor=none;fillColor=none;align=left;verticalAlign=top;spacingLeft=4;spacingRight=4;whiteSpace=wrap;overflow=hidden;rotatable=0;points=[[0,0.5],[1,0.5]];portConstraint=eastwest;" vertex="1" parent="z39Naz20EpBCcd1Hh88v-524">
          <mxGeometry y="26" width="180" height="26" as="geometry" />
        </mxCell>
        <mxCell id="z39Naz20EpBCcd1Hh88v-530" value="" style="line;html=1;strokeWidth=1;fillColor=none;align=left;verticalAlign=middle;spacingTop=-1;spacingLeft=3;spacingRight=3;rotatable=0;labelPosition=right;points=[];portConstraint=eastwest;" vertex="1" parent="z39Naz20EpBCcd1Hh88v-524">
          <mxGeometry y="52" width="180" height="8" as="geometry" />
        </mxCell>
        <mxCell id="z39Naz20EpBCcd1Hh88v-531" value="func" style="text;html=1;strokeColor=none;fillColor=none;align=left;verticalAlign=top;spacingLeft=4;spacingRight=4;whiteSpace=wrap;overflow=hidden;rotatable=0;points=[[0,0.5],[1,0.5]];portConstraint=eastwest;" vertex="1" parent="z39Naz20EpBCcd1Hh88v-524">
          <mxGeometry y="60" width="180" height="26" as="geometry" />
        </mxCell>
        <mxCell id="z39Naz20EpBCcd1Hh88v-536" value="&lt;span style=&quot;&quot;&gt;ENGINE_API UEngine*GEngine&lt;/span&gt;" style="whiteSpace=wrap;html=1;fontFamily=Verdana;verticalAlign=top;fillColor=none;fontStyle=1;startSize=26;swimlaneFillColor=#ffffff;rounded=0;shadow=0;comic=0;labelBackgroundColor=none;strokeWidth=1;" vertex="1" parent="1">
          <mxGeometry x="130" y="280" width="230" height="40" as="geometry" />
        </mxCell>
      </root>
    </mxGraphModel>
  </diagram>
</mxfile>
